SplineFontDB: 3.0
FontName: DOF-2-Extended
FullName: DOF-2 Extended
FamilyName: DOF-2
Weight: Extended
Copyright: DOF is a typeface to interface the exhibition The Weathers They Live In and its contributions. DOF is created by Paul Bernhard and written in the typographic language METAFONT by Donald E. Knuth. Different cuts will be rendered during the course of TWTLI.\n\nAll versions of DOF are free to use. \n\nDOF source and outline files: https://github.com/paulbernhard/dof\n\nThe METAFONT files were traced via mftrace: http://lilypond.org/mftrace/
Version: 1.0
ItalicAngle: 0
UnderlinePosition: -90.112
UnderlineWidth: 45.056
Ascent: 819
Descent: 205
InvalidEm: 0
LayerCount: 2
Layer: 0 0 "Back" 1
Layer: 1 0 "Fore" 0
OS2Version: 0
OS2_WeightWidthSlopeOnly: 0
OS2_UseTypoMetrics: 0
CreationTime: 1495032812
ModificationTime: 1495043750
OS2TypoAscent: 0
OS2TypoAOffset: 1
OS2TypoDescent: 0
OS2TypoDOffset: 1
OS2TypoLinegap: 0
OS2WinAscent: 0
OS2WinAOffset: 1
OS2WinDescent: 0
OS2WinDOffset: 1
HheadAscent: 0
HheadAOffset: 1
HheadDescent: 0
HheadDOffset: 1
OS2Vendor: 'PfEd'
MarkAttachClasses: 1
DEI: 91125
Encoding: ISO8859-1
UnicodeInterp: none
NameList: AGL For New Fonts
DisplaySize: -48
AntiAlias: 1
FitToEm: 0
WinInfo: 65 13 10
BeginPrivate: 3
lenIV 1 4
BlueValues 2 []
ForceBold 5 false
EndPrivate
BeginChars: 260 102

StartChar: exclam
Encoding: 33 33 1
Width: 505
VWidth: 909
Flags: HW
LayerCount: 2
Fore
SplineSet
243 817 m 0
 266 823 290 809 294 786 c 0
 295 782 295 699 295 476 c 0
 295 220 295 169 294 165 c 0
 290 153 281 141 270 137 c 0
 265 134 264 135 254 135 c 0
 243 135 242 134 237 137 c 0
 226 141 217 153 213 165 c 0
 212 169 212 220 212 476 c 0
 212 748 212 783 214 787 c 0
 218 802 229 813 243 817 c 0
242 81 m 0
 269 88 295 69 295 42 c 0
 295 23 282 6 263 2 c 0
 234 -6 206 20 212 50 c 0
 216 64 228 77 242 81 c 0
EndSplineSet
EndChar

StartChar: quotedbl
Encoding: 34 34 2
Width: 505
VWidth: 909
Flags: HW
LayerCount: 2
Fore
SplineSet
184 817 m 0
 207 823 232 809 236 786 c 0
 237 780 237 573 236 567 c 0
 234 560 229 550 224 545 c 0
 221 543 216 540 212 538 c 0
 206 535 205 536 196 536 c 0
 186 536 184 535 178 538 c 0
 174 540 170 543 167 545 c 0
 162 550 157 560 155 567 c 0
 154 571 154 603 154 677 c 0
 154 769 154 783 156 787 c 0
 160 802 170 813 184 817 c 0
300 817 m 0
 323 823 347 809 351 786 c 0
 352 780 352 573 351 567 c 0
 349 560 345 550 340 545 c 0
 337 543 332 540 328 538 c 0
 322 535 320 536 311 536 c 0
 301 536 300 535 294 538 c 0
 290 540 286 543 283 545 c 0
 278 550 272 560 270 567 c 0
 269 571 269 603 269 677 c 0
 269 769 269 783 271 787 c 0
 275 802 286 813 300 817 c 0
EndSplineSet
EndChar

StartChar: numbersign
Encoding: 35 35 3
Width: 1010
VWidth: 909
Flags: HW
LayerCount: 2
Fore
SplineSet
408 612 m 0
 427 617 448 608 456 590 c 0
 459 585 460 583 460 572 c 2
 460 561 l 1
 441 526 l 2
 431 506 419 482 414 471 c 2
 406 452 l 1
 578 452 l 1
 749 453 l 1
 783 524 l 2
 822 604 823 603 835 609 c 0
 843 613 849 614 856 614 c 0
 873 612 887 602 893 586 c 0
 896 579 896 567 893 560 c 0
 892 557 878 533 865 504 c 2
 840 453 l 1
 884 452 l 2
 913 452 929 451 931 450 c 0
 948 444 961 428 961 411 c 0
 961 392 948 375 930 370 c 0
 926 369 911 369 862 369 c 2
 799 369 l 1
 769 307 l 1
 739 247 l 1
 782 246 l 2
 825 246 827 245 831 243 c 0
 844 238 854 228 857 214 c 0
 863 194 850 170 827 165 c 0
 823 163 813 163 760 163 c 2
 698 163 l 1
 683 131 l 2
 625 12 627 17 622 12 c 0
 602 -8 567 -2 555 25 c 0
 552 30 553 31 553 42 c 2
 553 53 l 1
 569 88 l 2
 579 108 592 132 597 143 c 2
 606 163 l 1
 434 163 l 1
 263 163 l 1
 227 91 l 2
 188 10 188 11 176 5 c 0
 168 1 162 0 155 0 c 0
 138 2 125 13 119 29 c 0
 116 36 116 47 119 54 c 0
 120 57 132 82 145 111 c 2
 171 163 l 1
 127 163 l 2
 98 163 82 164 80 165 c 0
 63 171 51 187 51 205 c 0
 51 223 64 240 83 245 c 0
 86 246 101 246 150 246 c 2
 212 246 l 1
 242 307 l 1
 272 369 l 1
 228 369 l 2
 185 369 183 370 179 372 c 0
 166 377 157 386 154 400 c 0
 148 420 161 445 184 450 c 0
 188 452 198 452 251 452 c 2
 313 452 l 1
 329 483 l 2
 387 602 384 597 389 602 c 0
 394 607 401 610 408 612 c 0
705 362 m 2
 708 369 l 1
 536 369 l 1
 365 369 l 1
 360 361 l 2
 358 357 346 333 334 307 c 0
 322 280 309 257 307 253 c 2
 304 246 l 1
 476 246 l 1
 647 247 l 1
 675 301 l 2
 689 331 703 358 705 362 c 2
EndSplineSet
EndChar

StartChar: dollar
Encoding: 36 36 4
Width: 909
VWidth: 909
Flags: HW
LayerCount: 2
Fore
SplineSet
445 817 m 0
 468 823 492 809 496 786 c 0
 497 783 497 772 497 758 c 2
 497 733 l 1
 511 733 l 2
 531 733 583 732 602 731 c 0
 649 728 688 723 717 716 c 0
 762 704 796 672 807 632 c 0
 810 621 810 602 807 594 c 0
 803 583 794 573 782 569 c 0
 776 566 762 566 755 568 c 0
 744 572 733 582 729 594 c 0
 728 597 727 602 726 606 c 0
 726 610 726 614 724 616 c 0
 720 624 705 631 692 635 c 0
 659 644 610 649 528 651 c 2
 497 651 l 1
 497 553 l 1
 497 455 l 1
 508 455 l 2
 534 457 585 456 602 455 c 0
 663 451 704 441 738 418 c 0
 776 392 799 356 807 304 c 0
 809 292 810 261 808 249 c 0
 803 197 781 156 744 130 c 0
 713 108 659 93 581 88 c 0
 567 87 518 86 505 86 c 2
 497 86 l 1
 497 61 l 2
 497 47 497 36 496 33 c 0
 492 15 475 0 456 0 c 0
 437 0 420 13 416 32 c 0
 414 36 414 42 414 61 c 2
 414 86 l 1
 381 86 l 2
 294 88 242 91 200 102 c 0
 152 114 116 146 104 187 c 0
 101 198 100 217 103 225 c 0
 107 236 117 246 129 250 c 0
 135 253 150 253 157 251 c 0
 168 247 178 237 182 225 c 0
 183 222 183 217 184 213 c 0
 185 205 188 201 194 196 c 0
 205 187 221 180 258 176 c 0
 289 172 326 170 383 168 c 2
 414 168 l 1
 414 266 l 1
 414 366 l 1
 409 366 l 2
 397 364 358 364 338 364 c 0
 259 364 206 374 167 401 c 0
 129 427 105 463 97 516 c 0
 95 528 94 558 96 570 c 0
 102 622 126 665 163 690 c 0
 191 709 239 723 300 728 c 0
 324 731 339 732 377 733 c 2
 414 733 l 1
 414 758 l 2
 414 777 414 783 416 787 c 0
 420 802 431 813 445 817 c 0
414 550 m 1
 414 651 l 1
 402 651 l 2
 310 650 250 641 216 626 c 0
 202 619 190 605 184 586 c 0
 175 557 180 515 193 492 c 0
 210 462 249 448 324 446 c 0
 346 446 387 447 407 449 c 2
 414 449 l 1
 414 550 l 1
617 372 m 0
 597 374 514 374 500 371 c 2
 497 371 l 1
 497 269 l 1
 497 168 l 1
 504 168 l 2
 516 168 565 170 578 171 c 0
 633 175 677 186 696 198 c 0
 718 212 729 245 725 284 c 0
 722 317 712 336 692 349 c 0
 676 360 653 368 617 372 c 0
EndSplineSet
EndChar

StartChar: percent
Encoding: 37 37 5
Width: 1112
VWidth: 909
Flags: HW
LayerCount: 2
Fore
SplineSet
215 823 m 0
 217 824 238 824 262 823 c 0
 312 823 322 822 349 816 c 0
 399 804 436 770 450 722 c 0
 453 712 456 695 457 684 c 0
 459 672 459 597 458 569 c 0
 455 506 445 462 422 429 c 0
 397 391 359 370 300 362 c 0
 282 360 227 360 209 362 c 0
 166 367 136 381 111 401 c 0
 89 420 71 450 62 487 c 0
 53 523 51 555 51 623 c 0
 51 673 52 689 58 714 c 0
 72 772 114 809 177 820 c 0
 185 822 200 822 215 823 c 0
307 740 m 0
 297 741 226 742 213 741 c 0
 182 739 165 733 153 721 c 0
 143 711 138 699 135 676 c 0
 133 662 133 578 135 559 c 0
 139 501 151 472 173 459 c 0
 189 448 217 443 255 443 c 0
 302 443 333 451 347 467 c 0
 359 479 368 505 372 536 c 0
 376 559 375 573 375 618 c 0
 376 667 375 679 371 694 c 0
 365 723 346 736 307 740 c 0
1010 817 m 0
 1036 824 1061 805 1061 778 c 0
 1061 767 1057 757 1051 750 c 0
 1047 746 122 11 115 6 c 0
 107 1 93 -1 84 1 c 0
 53 8 39 46 61 70 c 0
 65 74 995 811 1000 814 c 0
 1003 816 1007 817 1010 817 c 0
824 458 m 0
 838 459 891 458 904 457 c 0
 961 450 999 428 1024 391 c 0
 1046 357 1058 314 1061 253 c 0
 1062 228 1062 163 1061 147 c 0
 1057 98 1045 66 1018 39 c 0
 993 14 960 0 913 -4 c 0
 898 -6 816 -6 802 -4 c 0
 755 0 722 14 698 39 c 0
 678 59 665 82 659 117 c 0
 655 135 654 142 653 185 c 0
 653 229 654 264 657 284 c 0
 669 398 719 449 824 458 c 0
884 375 m 0
 848 378 811 375 791 368 c 0
 771 361 759 349 750 326 c 0
 740 299 737 270 737 201 c 0
 736 152 737 140 741 125 c 0
 746 101 760 88 787 83 c 0
 802 79 810 79 846 78 c 0
 917 77 942 81 959 98 c 0
 969 108 974 120 977 144 c 0
 979 157 979 241 977 260 c 0
 973 318 961 347 939 360 c 0
 927 368 909 373 884 375 c 0
EndSplineSet
EndChar

StartChar: ampersand
Encoding: 38 38 6
Width: 909
VWidth: 909
Flags: HW
LayerCount: 2
Fore
SplineSet
393 823 m 0
 411 824 531 824 543 823 c 0
 600 819 637 809 670 792 c 0
 685 785 697 777 708 765 c 0
 743 731 758 680 758 609 c 0
 758 590 758 578 754 562 c 0
 747 523 727 489 698 463 c 0
 660 429 604 405 522 391 c 0
 514 390 508 389 508 389 c 1
 508 389 562 340 629 283 c 2
 750 177 l 1
 752 184 l 1
 756 211 783 226 807 217 c 0
 819 213 827 202 831 191 c 0
 832 187 833 183 833 171 c 0
 833 155 830 139 825 123 c 2
 823 115 l 1
 826 111 l 2
 828 110 841 99 853 88 c 2
 877 69 l 1
 881 60 l 1
 885 52 l 1
 885 42 l 2
 885 32 884 31 881 25 c 0
 876 13 866 5 854 1 c 0
 844 -1 832 0 823 5 c 0
 820 6 810 17 798 28 c 2
 774 46 l 1
 773 45 l 2
 769 42 756 34 750 30 c 0
 717 14 660 1 590 -3 c 0
 548 -6 430 -6 379 -4 c 0
 300 -1 248 9 205 29 c 0
 174 44 155 59 137 86 c 0
 114 120 104 164 102 221 c 0
 101 254 104 275 112 301 c 0
 136 372 196 416 304 440 c 1
 317 444 l 1
 241 511 l 2
 198 548 162 580 161 581 c 0
 154 590 152 598 152 614 c 0
 152 639 156 668 161 690 c 0
 171 728 191 760 220 780 c 0
 258 808 313 820 393 823 c 0
537 740 m 0
 522 741 411 742 389 741 c 0
 320 737 278 727 259 705 c 0
 247 692 238 666 236 635 c 2
 236 625 l 1
 329 544 l 2
 380 500 422 463 423 462 c 0
 425 461 456 465 493 471 c 0
 594 487 645 511 665 553 c 0
 674 570 678 597 675 630 c 0
 671 686 655 711 618 725 c 0
 598 733 575 737 537 740 c 0
554 239 m 0
 439 338 399 373 397 373 c 0
 396 373 393 374 392 373 c 0
 391 373 380 371 368 369 c 0
 289 357 244 340 216 314 c 0
 191 290 181 259 185 211 c 0
 189 158 201 127 226 111 c 0
 254 94 295 83 364 79 c 0
 388 77 536 77 566 79 c 0
 628 83 668 88 698 99 c 0
 703 100 709 101 709 102 c 1
 710 102 639 164 554 239 c 0
EndSplineSet
EndChar

StartChar: parenleft
Encoding: 40 40 7
Width: 353
VWidth: 909
Flags: HW
LayerCount: 2
Fore
SplineSet
237 868 m 0
 250 870 266 870 272 869 c 0
 290 864 303 847 303 829 c 0
 303 810 289 792 271 788 c 0
 268 788 261 787 256 787 c 0
 217 785 183 766 168 737 c 0
 156 715 145 667 141 615 c 0
 136 561 135 529 135 410 c 0
 135 291 136 258 141 204 c 0
 145 152 156 104 168 82 c 0
 183 53 217 34 256 32 c 0
 268 32 275 32 281 28 c 0
 306 16 310 -19 291 -39 c 0
 279 -50 267 -53 238 -49 c 0
 207 -45 177 -34 152 -18 c 0
 107 13 83 53 68 131 c 0
 56 197 51 260 51 410 c 0
 51 560 56 622 68 688 c 0
 83 766 107 807 152 838 c 0
 177 854 207 864 237 868 c 0
EndSplineSet
EndChar

StartChar: parenright
Encoding: 41 41 8
Width: 353
VWidth: 909
Flags: HW
LayerCount: 2
Fore
SplineSet
82 869 m 0
 92 872 119 869 141 864 c 0
 186 853 224 829 249 793 c 0
 278 753 294 677 300 568 c 0
 304 500 304 319 300 251 c 0
 294 142 278 67 249 27 c 0
 220 -15 171 -43 117 -49 c 0
 88 -53 74 -50 62 -39 c 0
 43 -19 49 16 74 28 c 0
 80 32 86 32 98 32 c 0
 137 34 170 53 185 82 c 0
 197 104 209 152 213 204 c 0
 218 258 219 291 219 410 c 0
 219 529 218 561 213 615 c 0
 209 667 197 715 185 737 c 0
 170 766 137 785 98 787 c 0
 93 787 86 788 84 788 c 0
 65 792 51 810 51 829 c 0
 51 847 64 864 82 869 c 0
EndSplineSet
EndChar

StartChar: asterisk
Encoding: 42 42 9
Width: 808
VWidth: 909
Flags: HW
LayerCount: 2
Fore
SplineSet
394 817 m 0
 417 823 441 809 445 786 c 0
 446 783 446 771 446 752 c 2
 446 722 l 1
 469 735 l 2
 499 751 502 754 509 755 c 0
 526 759 546 748 553 731 c 0
 556 726 556 725 556 714 c 0
 556 704 556 702 553 696 c 0
 548 685 543 682 513 666 c 0
 490 653 487 650 489 649 c 0
 490 649 502 642 515 635 c 0
 527 627 541 619 543 617 c 0
 552 609 557 597 556 584 c 0
 555 578 556 574 553 569 c 0
 549 560 541 553 532 549 c 0
 526 546 525 546 515 546 c 0
 505 546 504 546 498 549 c 0
 494 551 481 558 469 565 c 0
 457 572 447 578 446 578 c 2
 446 548 l 2
 446 515 445 511 440 503 c 0
 435 493 423 483 411 481 c 0
 391 478 369 492 365 512 c 0
 363 516 364 523 364 548 c 2
 364 578 l 2
 363 578 352 572 340 565 c 0
 328 558 315 551 311 549 c 0
 305 546 304 546 294 546 c 0
 284 546 282 546 276 549 c 0
 267 553 261 560 257 569 c 0
 254 574 254 578 253 584 c 0
 252 597 257 609 266 617 c 0
 268 619 282 627 294 635 c 0
 307 642 318 649 319 649 c 0
 321 650 319 653 296 666 c 0
 266 682 262 685 257 696 c 0
 254 702 254 704 254 714 c 0
 254 725 254 726 257 732 c 0
 267 752 292 761 312 751 c 0
 315 750 328 742 340 735 c 2
 364 722 l 1
 364 752 l 2
 364 777 363 783 365 787 c 0
 369 802 380 813 394 817 c 0
EndSplineSet
EndChar

StartChar: plus
Encoding: 43 43 10
Width: 1010
VWidth: 909
Flags: HW
LayerCount: 2
Fore
SplineSet
496 612 m 0
 519 618 542 605 546 582 c 0
 547 578 547 545 547 463 c 2
 547 348 l 1
 735 348 l 2
 890 348 926 349 930 348 c 0
 948 343 961 325 961 307 c 0
 961 288 948 271 930 266 c 0
 926 265 890 266 735 266 c 2
 547 266 l 1
 547 152 l 2
 547 70 547 37 546 33 c 0
 542 15 525 0 506 0 c 0
 487 0 470 13 466 32 c 0
 464 36 464 52 464 152 c 2
 464 266 l 1
 275 266 l 2
 120 266 87 265 83 266 c 0
 64 271 51 288 51 307 c 0
 51 325 64 343 83 348 c 0
 87 349 120 348 275 348 c 2
 464 348 l 1
 464 463 l 2
 464 563 464 579 466 583 c 0
 470 598 482 608 496 612 c 0
EndSplineSet
EndChar

StartChar: comma
Encoding: 44 44 11
Width: 303
VWidth: 909
Flags: HW
LayerCount: 2
Fore
SplineSet
141 81 m 0
 164 87 189 73 193 49 c 0
 194 45 193 38 193 26 c 0
 190 -41 173 -107 144 -167 c 0
 136 -182 134 -186 130 -190 c 0
 106 -214 66 -202 60 -167 c 0
 58 -157 60 -152 70 -130 c 0
 96 -77 108 -28 111 30 c 0
 111 39 111 48 112 51 c 0
 115 65 127 77 141 81 c 0
EndSplineSet
EndChar

StartChar: hyphen
Encoding: 45 45 12
Width: 1010
VWidth: 909
Flags: HW
LayerCount: 2
Fore
SplineSet
82 348 m 0
 88 349 923 350 930 348 c 0
 948 343 961 325 961 307 c 0
 961 288 948 271 930 266 c 0
 923 264 89 264 83 266 c 0
 64 271 51 288 51 307 c 0
 51 325 64 343 82 348 c 0
EndSplineSet
EndChar

StartChar: period
Encoding: 46 46 13
Width: 303
VWidth: 909
Flags: HW
LayerCount: 2
Fore
SplineSet
142 82 m 0
 164 87 186 74 191 51 c 0
 198 25 180 0 152 0 c 0
 125 0 105 25 111 51 c 0
 115 66 127 78 142 82 c 0
EndSplineSet
EndChar

StartChar: slash
Encoding: 47 47 14
Width: 707
VWidth: 909
Flags: HW
LayerCount: 2
Fore
SplineSet
605 817 m 0
 639 826 668 791 652 759 c 0
 648 753 125 16 121 12 c 0
 111 2 95 -2 83 1 c 0
 56 8 43 36 55 60 c 0
 59 66 583 804 587 808 c 0
 592 812 599 816 605 817 c 0
EndSplineSet
EndChar

StartChar: zero
Encoding: 48 48 15
Width: 909
VWidth: 909
Flags: HW
LayerCount: 2
Fore
SplineSet
406 823 m 0
 420 824 518 824 530 823 c 0
 591 819 635 808 674 788 c 0
 696 777 718 760 732 745 c 0
 777 699 802 634 810 544 c 0
 814 508 814 495 814 410 c 0
 814 352 814 320 813 308 c 0
 808 228 797 178 772 131 c 0
 749 86 718 53 674 31 c 0
 635 11 591 0 528 -4 c 0
 506 -6 402 -6 382 -4 c 0
 295 2 239 21 194 59 c 0
 156 91 127 140 113 201 c 0
 105 232 100 262 97 308 c 0
 95 332 95 487 97 512 c 0
 102 591 113 641 138 688 c 0
 161 733 193 766 237 788 c 0
 281 811 328 820 406 823 c 0
526 740 m 0
 513 741 424 742 410 741 c 0
 390 740 368 739 356 737 c 0
 270 726 225 693 200 623 c 0
 190 591 184 559 180 504 c 0
 178 479 178 339 180 315 c 0
 182 281 185 253 189 234 c 0
 195 204 205 179 217 159 c 0
 247 109 296 85 387 79 c 0
 409 77 501 77 524 79 c 0
 623 86 672 114 701 175 c 0
 716 209 726 247 730 315 c 0
 732 339 732 479 730 504 c 0
 728 537 725 566 721 585 c 0
 715 615 704 640 692 660 c 0
 662 710 614 734 526 740 c 0
EndSplineSet
EndChar

StartChar: one
Encoding: 49 49 16
Width: 630
VWidth: 909
Flags: HW
LayerCount: 2
Fore
SplineSet
479 817 m 0
 502 823 525 809 529 786 c 0
 530 780 530 39 529 33 c 0
 525 14 507 0 489 0 c 0
 473 0 458 11 452 25 c 2
 449 31 l 1
 447 357 l 1
 447 684 l 1
 340 587 l 2
 81 354 96 369 89 365 c 0
 84 362 81 362 75 361 c 0
 63 361 51 365 43 373 c 0
 31 385 28 405 35 420 c 0
 37 424 40 428 43 431 c 0
 45 434 139 519 251 620 c 0
 363 721 458 804 461 807 c 0
 466 811 473 815 479 817 c 0
EndSplineSet
EndChar

StartChar: two
Encoding: 50 50 17
Width: 909
VWidth: 909
Flags: HW
LayerCount: 2
Fore
SplineSet
373 823 m 0
 398 824 543 824 556 823 c 0
 640 818 694 803 733 777 c 0
 783 743 809 682 809 597 c 0
 809 578 809 565 805 548 c 0
 793 478 753 421 684 376 c 0
 637 344 588 322 477 283 c 0
 431 267 407 258 387 250 c 0
 285 211 228 170 202 119 c 0
 198 111 191 93 190 86 c 2
 189 83 l 1
 480 83 l 2
 799 83 777 83 787 78 c 0
 797 73 805 60 808 48 c 0
 811 32 801 12 787 5 c 0
 777 0 802 0 455 0 c 0
 190 0 137 0 133 1 c 0
 121 5 109 14 105 25 c 0
 102 30 102 32 102 41 c 0
 101 75 110 115 124 146 c 0
 152 207 204 257 290 298 c 0
 328 317 357 327 449 360 c 0
 523 387 556 401 590 416 c 0
 669 455 712 501 723 558 c 0
 729 592 727 636 717 666 c 0
 710 691 696 705 676 715 c 0
 647 729 611 736 550 740 c 0
 525 742 374 742 344 740 c 0
 291 737 258 732 230 725 c 0
 216 721 208 717 201 710 c 0
 191 700 186 689 184 676 c 0
 183 654 176 642 161 635 c 0
 154 631 153 631 143 631 c 0
 132 631 133 631 126 635 c 0
 110 642 102 656 102 675 c 0
 102 692 108 714 116 731 c 0
 129 760 149 781 178 795 c 0
 215 812 279 820 373 823 c 0
EndSplineSet
EndChar

StartChar: three
Encoding: 51 51 18
Width: 909
VWidth: 909
Flags: HW
LayerCount: 2
Fore
SplineSet
326 827 m 0
 343 828 420 827 432 826 c 0
 436 826 462 825 490 824 c 0
 556 823 582 821 618 816 c 0
 688 806 739 784 768 750 c 0
 777 739 784 728 791 715 c 0
 798 700 802 691 806 676 c 0
 818 627 818 566 806 517 c 0
 802 502 798 493 791 479 c 0
 778 450 761 431 737 416 c 2
 728 410 l 1
 736 404 l 2
 759 390 778 369 791 342 c 0
 797 328 802 318 806 302 c 0
 818 254 818 191 806 143 c 0
 802 127 797 117 791 104 c 0
 774 69 752 48 718 32 c 0
 689 18 659 8 618 3 c 0
 582 -2 556 -4 490 -5 c 0
 462 -6 436 -7 432 -7 c 0
 415 -9 356 -9 332 -8 c 0
 284 -6 235 -1 197 7 c 0
 144 17 112 39 103 75 c 0
 98 100 106 119 125 129 c 0
 137 134 150 134 162 129 c 0
 174 123 181 112 184 99 c 0
 185 97 185 95 187 95 c 0
 202 87 274 78 336 75 c 0
 359 74 410 74 428 76 c 0
 432 77 458 77 486 78 c 0
 536 79 559 79 583 82 c 0
 643 87 684 101 702 121 c 0
 712 132 721 149 725 168 c 0
 729 185 731 197 731 223 c 0
 731 249 729 262 725 279 c 0
 721 298 712 314 702 325 c 0
 684 345 643 360 583 365 c 0
 557 368 538 368 495 369 c 0
 469 369 448 370 446 370 c 0
 434 373 423 381 418 393 c 0
 415 398 415 400 415 411 c 0
 415 421 415 422 418 427 c 0
 423 439 434 448 446 451 c 0
 448 451 469 452 495 452 c 0
 538 453 557 453 583 456 c 0
 643 461 684 476 703 496 c 0
 716 511 726 532 730 562 c 0
 732 578 732 615 730 632 c 0
 726 661 716 683 703 698 c 0
 684 718 643 732 583 737 c 0
 559 740 536 740 486 741 c 0
 458 742 432 742 428 743 c 0
 423 743 405 744 389 745 c 0
 335 746 279 742 225 733 c 0
 206 730 192 727 187 724 c 0
 185 724 185 722 184 720 c 0
 181 707 174 696 162 690 c 0
 150 685 137 685 125 690 c 0
 106 700 98 719 103 744 c 0
 109 768 125 787 152 799 c 0
 164 805 178 808 197 812 c 0
 233 819 281 824 326 827 c 0
EndSplineSet
EndChar

StartChar: four
Encoding: 52 52 19
Width: 834
VWidth: 909
Flags: HW
LayerCount: 2
Fore
SplineSet
295 818 m 0
 304 820 316 819 325 814 c 0
 339 807 349 787 346 772 c 0
 345 768 344 764 342 761 c 0
 341 758 216 559 194 524 c 1
 193 522 l 1
 309 522 l 1
 427 522 l 1
 427 550 l 2
 427 566 427 579 428 582 c 0
 432 601 450 614 469 614 c 0
 487 614 505 601 509 582 c 0
 510 579 510 566 510 550 c 2
 510 522 l 1
 629 522 l 2
 725 522 749 522 753 521 c 0
 771 516 783 499 783 481 c 0
 783 462 771 445 753 440 c 0
 749 439 725 439 629 439 c 2
 510 439 l 1
 510 239 l 2
 510 94 510 37 509 33 c 0
 505 15 488 0 469 0 c 0
 450 0 433 13 429 32 c 0
 427 36 427 61 427 239 c 2
 427 439 l 1
 269 439 l 2
 99 439 108 440 98 444 c 0
 81 453 72 476 78 495 c 0
 81 502 269 801 275 807 c 0
 279 811 289 816 295 818 c 0
EndSplineSet
EndChar

StartChar: five
Encoding: 53 53 20
Width: 909
VWidth: 909
Flags: HW
LayerCount: 2
Fore
SplineSet
133 817 m 0
 137 819 181 819 455 819 c 0
 802 819 777 819 787 814 c 0
 797 809 805 796 808 784 c 0
 811 768 801 748 787 741 c 0
 777 736 801 736 479 736 c 2
 184 736 l 1
 184 668 l 1
 184 599 l 1
 190 601 l 2
 221 611 278 616 354 618 c 0
 395 619 498 619 527 618 c 0
 602 615 653 605 695 583 c 0
 736 563 764 534 784 493 c 0
 801 457 811 415 814 360 c 0
 815 336 815 278 814 255 c 0
 811 199 801 158 784 122 c 0
 773 99 763 85 748 69 c 0
 711 33 661 11 595 2 c 0
 557 -3 526 -5 445 -5 c 0
 302 -5 229 0 184 15 c 0
 136 30 105 69 102 112 c 0
 101 126 105 136 114 145 c 0
 122 154 131 159 143 159 c 0
 155 159 165 154 173 146 c 0
 180 138 184 128 184 119 c 0
 184 115 186 110 190 106 c 0
 196 99 208 94 227 90 c 0
 269 81 332 78 446 78 c 0
 521 78 550 79 583 84 c 0
 609 88 625 91 643 99 c 0
 680 113 705 137 717 174 c 0
 728 205 732 241 732 307 c 0
 732 372 728 409 717 440 c 0
 700 492 658 520 583 530 c 0
 550 535 521 537 446 537 c 0
 332 537 269 533 227 524 c 0
 208 520 196 515 190 508 c 0
 186 504 184 500 184 496 c 0
 184 484 176 468 165 462 c 0
 153 455 134 455 122 462 c 0
 114 467 105 476 102 487 c 0
 101 491 102 518 102 637 c 0
 102 764 101 783 103 787 c 0
 107 802 119 813 133 817 c 0
EndSplineSet
EndChar

StartChar: six
Encoding: 54 54 21
Width: 909
VWidth: 909
Flags: HW
LayerCount: 2
Fore
SplineSet
420 823 m 0
 432 824 555 824 572 823 c 0
 627 820 669 814 702 805 c 0
 725 799 737 792 753 782 c 0
 789 758 812 715 815 669 c 0
 816 651 812 641 803 631 c 0
 787 616 759 616 743 631 c 0
 735 640 734 646 731 669 c 0
 729 691 717 709 699 718 c 0
 676 729 630 736 568 740 c 0
 539 742 446 742 422 741 c 0
 348 737 299 724 263 696 c 0
 239 676 220 647 207 604 c 0
 203 592 198 574 198 573 c 2
 207 579 l 2
 244 599 291 613 351 617 c 0
 396 621 514 621 559 617 c 0
 662 609 731 576 770 518 c 0
 797 478 810 429 814 360 c 0
 815 336 815 278 814 255 c 0
 810 185 797 136 770 97 c 0
 731 38 662 5 559 -3 c 0
 514 -7 396 -7 351 -3 c 0
 248 5 179 38 140 97 c 0
 113 136 100 185 96 255 c 0
 94 293 95 409 98 455 c 0
 106 594 138 688 193 743 c 0
 243 793 312 818 420 823 c 0
522 537 m 0
 498 538 411 538 386 537 c 0
 302 533 253 518 222 487 c 0
 199 464 186 433 182 384 c 0
 178 344 178 270 182 230 c 0
 184 206 188 191 194 174 c 0
 207 134 234 108 279 94 c 0
 319 81 360 78 455 78 c 0
 550 78 592 81 632 94 c 0
 657 102 674 113 688 127 c 0
 704 143 716 164 722 193 c 0
 729 219 732 254 732 307 c 0
 732 372 728 409 717 440 c 0
 704 480 677 506 632 520 c 0
 603 530 572 535 522 537 c 0
EndSplineSet
EndChar

StartChar: seven
Encoding: 55 55 22
Width: 808
VWidth: 909
Flags: HW
LayerCount: 2
Fore
SplineSet
82 818 m 0
 88 819 720 820 727 818 c 0
 753 811 766 783 754 759 c 0
 750 751 314 18 311 14 c 0
 305 6 295 1 283 0 c 0
 276 0 268 1 260 5 c 0
 252 9 246 16 242 25 c 0
 239 31 240 32 240 42 c 0
 240 51 239 52 242 58 c 0
 244 62 334 216 444 400 c 0
 555 584 643 735 643 736 c 2
 365 736 l 2
 136 736 87 736 83 737 c 0
 64 742 51 759 51 778 c 0
 51 796 64 813 82 818 c 0
EndSplineSet
EndChar

StartChar: eight
Encoding: 56 56 23
Width: 909
VWidth: 909
Flags: HW
LayerCount: 2
Fore
SplineSet
384 823 m 0
 403 824 543 824 556 823 c 0
 627 819 673 809 710 790 c 0
 732 780 747 768 759 753 c 0
 790 716 806 664 804 598 c 0
 803 566 799 545 791 520 c 0
 779 483 758 452 730 435 c 0
 726 433 724 430 724 430 c 1
 724 430 725 429 728 428 c 0
 743 419 763 400 774 385 c 0
 802 347 815 298 815 232 c 0
 815 161 799 108 766 70 c 0
 736 36 685 13 615 3 c 0
 571 -3 549 -4 455 -4 c 0
 361 -4 339 -3 295 3 c 0
 225 13 174 36 144 70 c 0
 111 108 95 161 95 232 c 0
 95 298 107 347 135 385 c 0
 146 400 167 419 182 428 c 0
 185 429 186 430 186 430 c 1
 186 430 184 433 180 435 c 0
 171 440 159 452 152 461 c 0
 129 489 115 522 109 566 c 0
 107 580 106 616 108 633 c 0
 112 682 126 723 152 753 c 0
 164 768 179 780 201 790 c 0
 244 812 298 820 384 823 c 0
552 740 m 0
 539 741 407 742 389 741 c 0
 311 738 265 731 234 715 c 0
 214 704 202 686 195 656 c 0
 189 631 189 582 195 558 c 0
 202 527 214 510 234 499 c 0
 261 486 299 477 361 473 c 0
 385 471 525 471 550 473 c 0
 611 477 649 486 676 499 c 0
 696 510 709 527 716 558 c 0
 721 576 722 616 719 639 c 0
 715 669 705 692 690 705 c 0
 680 714 660 723 636 729 c 0
 616 733 588 737 552 740 c 0
552 387 m 0
 539 388 408 389 389 388 c 0
 314 385 267 377 234 362 c 0
 212 351 200 338 191 314 c 0
 175 273 175 193 191 152 c 0
 200 128 212 114 234 103 c 0
 263 90 302 83 361 79 c 0
 386 77 524 77 550 79 c 0
 608 83 647 90 676 103 c 0
 698 114 710 128 719 152 c 0
 735 193 735 273 719 314 c 0
 710 338 698 351 676 362 c 0
 647 374 609 383 552 387 c 0
EndSplineSet
EndChar

StartChar: nine
Encoding: 57 57 24
Width: 909
VWidth: 909
Flags: HW
LayerCount: 2
Fore
SplineSet
381 823 m 0
 426 825 527 825 559 822 c 0
 662 814 731 781 770 723 c 0
 797 683 810 634 814 565 c 0
 816 526 815 411 812 365 c 0
 803 208 764 108 694 55 c 0
 649 20 593 3 511 -4 c 0
 492 -6 370 -6 340 -4 c 0
 283 -1 242 4 208 14 c 0
 185 20 174 27 158 37 c 0
 122 61 98 105 95 151 c 0
 94 169 99 178 108 188 c 0
 124 203 151 203 167 188 c 0
 175 179 176 174 179 151 c 0
 181 129 193 110 211 101 c 0
 234 90 280 83 342 79 c 0
 371 77 464 77 488 78 c 0
 562 82 611 95 647 123 c 0
 671 143 690 172 703 216 c 0
 707 227 713 245 713 246 c 2
 703 241 l 2
 666 221 619 206 559 202 c 0
 514 198 396 198 351 202 c 0
 270 208 214 229 171 266 c 0
 131 302 106 356 99 428 c 0
 95 469 95 555 99 596 c 0
 106 668 131 722 171 758 c 0
 218 799 283 819 381 823 c 0
522 741 m 0
 498 742 411 742 386 741 c 0
 302 737 253 723 222 692 c 0
 199 669 186 638 182 589 c 0
 178 549 178 475 182 435 c 0
 184 411 188 396 194 379 c 0
 207 339 234 313 279 299 c 0
 319 286 360 283 455 283 c 0
 550 283 592 286 632 299 c 0
 657 307 674 318 688 332 c 0
 704 348 716 368 722 397 c 0
 729 423 732 459 732 512 c 0
 732 577 728 614 717 645 c 0
 704 685 677 711 632 725 c 0
 603 735 572 739 522 741 c 0
EndSplineSet
EndChar

StartChar: colon
Encoding: 58 58 25
Width: 303
VWidth: 909
Flags: HW
LayerCount: 2
Fore
SplineSet
142 613 m 0
 164 618 186 606 191 583 c 0
 198 557 180 531 152 531 c 0
 125 531 105 557 111 583 c 0
 115 598 127 609 142 613 c 0
142 82 m 0
 164 87 186 74 191 51 c 0
 198 25 180 0 152 0 c 0
 125 0 105 25 111 51 c 0
 115 66 127 78 142 82 c 0
EndSplineSet
EndChar

StartChar: semicolon
Encoding: 59 59 26
Width: 303
VWidth: 909
Flags: HW
LayerCount: 2
Fore
SplineSet
142 613 m 0
 164 618 186 606 191 583 c 0
 198 557 180 531 152 531 c 0
 125 531 105 557 111 583 c 0
 115 598 127 609 142 613 c 0
141 81 m 0
 164 87 189 73 193 49 c 0
 194 45 193 38 193 26 c 0
 190 -41 173 -107 144 -167 c 0
 136 -182 134 -186 130 -190 c 0
 106 -214 66 -202 60 -167 c 0
 58 -157 60 -152 70 -130 c 0
 96 -77 108 -28 111 30 c 0
 111 39 111 48 112 51 c 0
 115 65 127 77 141 81 c 0
EndSplineSet
EndChar

StartChar: less
Encoding: 60 60 27
Width: 1010
VWidth: 909
Flags: HW
LayerCount: 2
Fore
SplineSet
909 613 m 0
 934 619 961 600 961 573 c 0
 961 558 950 543 938 537 c 0
 935 535 778 483 585 422 c 0
 392 361 233 308 231 308 c 0
 227 307 239 305 580 194 c 0
 774 133 935 79 938 78 c 0
 951 72 961 56 961 42 c 0
 961 17 939 -2 916 0 c 0
 911 1 834 25 494 135 c 0
 266 209 76 269 73 271 c 0
 61 277 51 292 51 307 c 0
 51 321 61 337 73 343 c 0
 77 346 895 609 909 613 c 0
EndSplineSet
EndChar

StartChar: equal
Encoding: 61 61 28
Width: 1010
VWidth: 909
Flags: HW
LayerCount: 2
Fore
SplineSet
82 451 m 0
 88 452 923 453 930 451 c 0
 948 446 961 429 961 411 c 0
 961 392 948 375 930 370 c 0
 923 368 89 368 83 370 c 0
 76 372 67 377 62 381 c 0
 55 389 51 400 51 411 c 0
 51 429 64 446 82 451 c 0
82 246 m 0
 88 247 923 248 930 246 c 0
 948 241 961 224 961 206 c 0
 961 187 948 170 930 165 c 0
 923 163 89 163 83 165 c 0
 64 170 51 187 51 206 c 0
 51 224 64 241 82 246 c 0
EndSplineSet
EndChar

StartChar: greater
Encoding: 62 62 29
Width: 1010
VWidth: 909
Flags: HW
LayerCount: 2
Fore
SplineSet
82 613 m 0
 85 613 90 614 94 614 c 0
 101 613 121 606 518 479 c 0
 746 405 935 345 938 343 c 0
 950 337 961 321 961 307 c 0
 961 292 950 277 938 271 c 0
 935 269 746 209 518 135 c 0
 178 25 99 1 94 0 c 0
 71 -2 51 17 51 42 c 0
 51 56 61 72 74 78 c 0
 77 79 237 133 431 194 c 0
 772 305 784 307 780 308 c 0
 778 308 620 361 427 422 c 0
 234 483 76 535 73 537 c 0
 61 543 51 558 51 573 c 0
 51 591 64 608 82 613 c 0
EndSplineSet
EndChar

StartChar: question
Encoding: 63 63 30
Width: 808
VWidth: 909
Flags: HW
LayerCount: 2
Fore
SplineSet
325 823 m 0
 353 824 453 824 480 823 c 0
 548 820 597 813 636 797 c 0
 664 786 683 773 700 757 c 0
 731 725 750 683 757 622 c 0
 759 605 759 540 757 524 c 0
 753 485 744 457 732 430 c 0
 715 395 693 375 652 352 c 0
 612 329 570 315 522 309 c 0
 508 307 468 307 454 308 c 2
 446 309 l 1
 446 240 l 2
 446 185 446 169 445 165 c 0
 441 153 433 141 422 137 c 0
 417 134 416 135 406 135 c 0
 395 135 393 134 388 137 c 0
 377 141 369 153 365 165 c 0
 364 169 364 187 364 266 c 0
 364 351 363 365 365 369 c 0
 369 384 380 394 395 398 c 0
 402 401 408 400 421 397 c 0
 478 385 530 390 583 410 c 0
 603 418 630 434 640 443 c 0
 666 467 678 512 676 582 c 0
 674 650 661 687 632 707 c 0
 603 726 565 736 496 740 c 0
 472 742 338 742 314 740 c 0
 246 736 207 726 179 708 c 0
 149 688 137 652 134 586 c 0
 134 577 133 566 133 563 c 0
 129 544 112 529 93 529 c 0
 73 529 56 544 52 563 c 0
 51 567 51 575 51 589 c 0
 52 613 53 629 57 648 c 0
 68 708 94 751 136 778 c 0
 179 806 240 819 325 823 c 0
395 82 m 0
 417 87 439 74 444 51 c 0
 451 25 432 0 404 0 c 0
 377 0 359 25 365 51 c 0
 369 66 380 78 395 82 c 0
EndSplineSet
EndChar

StartChar: at
Encoding: 64 64 31
Width: 1212
VWidth: 909
Flags: HW
LayerCount: 2
Fore
SplineSet
521 812 m 0
 544 813 712 812 727 811 c 0
 805 807 858 797 906 782 c 0
 957 766 1003 740 1033 709 c 0
 1079 659 1107 590 1114 496 c 0
 1118 451 1119 384 1115 361 c 0
 1107 308 1088 267 1057 236 c 0
 1024 202 979 184 933 184 c 0
 911 184 883 190 868 198 c 2
 864 200 l 1
 861 193 l 2
 852 174 835 154 818 143 c 0
 808 136 789 127 777 123 c 0
 748 113 715 107 668 105 c 0
 637 103 564 104 546 106 c 0
 492 112 453 127 423 153 c 0
 394 179 375 216 365 263 c 0
 357 300 353 337 354 421 c 0
 355 474 354 486 358 510 c 0
 370 612 415 672 498 692 c 0
 527 700 548 701 602 702 c 0
 688 703 737 697 777 684 c 0
 789 680 808 671 818 664 c 0
 830 657 844 643 852 632 c 0
 864 612 875 589 879 561 c 0
 883 541 882 542 883 416 c 2
 884 293 l 1
 886 289 l 2
 898 266 939 259 973 275 c 0
 996 286 1015 310 1025 339 c 0
 1034 364 1037 396 1034 449 c 0
 1030 539 1016 592 987 633 c 0
 947 689 868 719 739 727 c 0
 678 731 535 731 474 727 c 0
 333 719 253 685 215 615 c 0
 189 570 178 506 178 404 c 0
 178 259 200 186 258 141 c 0
 283 122 312 104 341 92 c 0
 392 70 449 59 502 61 c 0
 532 62 555 66 585 73 c 0
 604 77 608 79 616 76 c 0
 648 69 658 29 636 6 c 0
 629 0 622 -3 602 -8 c 0
 568 -16 538 -21 502 -22 c 0
 429 -24 358 -8 291 25 c 0
 239 50 193 84 168 115 c 0
 142 146 124 183 113 226 c 0
 101 275 95 324 95 404 c 0
 95 479 100 526 111 571 c 0
 133 664 180 726 259 764 c 0
 324 795 400 809 521 812 c 0
684 618 m 0
 669 619 583 619 567 618 c 0
 532 616 508 611 489 601 c 0
 480 596 468 582 463 572 c 0
 444 540 437 498 437 403 c 0
 437 322 442 283 454 252 c 0
 460 238 465 228 475 219 c 0
 494 199 520 191 571 188 c 0
 591 187 665 187 684 189 c 0
 732 193 763 202 778 217 c 0
 787 226 793 239 797 257 c 0
 801 276 800 289 800 414 c 0
 799 519 800 534 799 543 c 0
 795 565 788 580 778 590 c 0
 763 605 732 614 684 618 c 0
EndSplineSet
EndChar

StartChar: A
Encoding: 65 65 32
Width: 960
VWidth: 909
Flags: HW
LayerCount: 2
Fore
SplineSet
441 818 m 0
 447 819 514 819 520 818 c 0
 527 815 536 811 540 806 c 0
 544 801 553 784 714 428 c 0
 807 223 883 54 884 52 c 0
 885 49 885 45 885 41 c 0
 885 4 841 -15 815 12 c 0
 809 17 814 8 733 185 c 2
 668 328 l 1
 480 328 l 1
 293 328 l 1
 228 185 l 2
 147 8 152 17 146 12 c 0
 120 -15 77 4 77 41 c 0
 77 45 77 49 78 52 c 0
 79 54 155 223 248 428 c 0
 409 784 418 801 422 806 c 0
 426 811 434 815 441 818 c 0
557 573 m 2
 487 728 482 736 480 736 c 0
 478 736 474 728 404 573 c 2
 331 412 l 1
 406 411 l 1
 555 411 l 1
 631 412 l 1
 557 573 l 2
EndSplineSet
EndChar

StartChar: B
Encoding: 66 66 33
Width: 909
VWidth: 909
Flags: HW
LayerCount: 2
Fore
SplineSet
133 818 m 0
 141 820 296 819 369 816 c 0
 495 812 583 801 651 782 c 0
 685 772 716 755 742 733 c 0
 785 696 809 646 809 593 c 0
 809 516 769 445 709 415 c 2
 701 412 l 1
 712 407 l 2
 758 383 794 339 807 285 c 0
 813 262 814 251 814 227 c 0
 814 207 814 205 812 194 c 0
 805 161 790 135 770 109 c 0
 741 76 700 50 654 37 c 0
 592 20 507 9 393 4 c 0
 323 1 144 -1 135 1 c 0
 123 4 110 13 105 25 c 2
 102 31 l 1
 102 410 l 1
 102 790 l 1
 105 795 l 2
 109 806 121 814 133 818 c 0
292 735 m 0
 265 736 231 736 215 736 c 2
 184 736 l 1
 184 594 l 1
 184 452 l 1
 315 452 l 2
 442 453 462 452 507 456 c 0
 587 460 649 475 678 493 c 0
 705 510 721 543 725 582 c 0
 728 615 719 640 694 665 c 0
 676 683 655 694 627 702 c 0
 556 722 454 732 292 735 c 0
435 368 m 0
 416 369 352 369 293 369 c 2
 184 369 l 1
 184 225 l 1
 184 83 l 1
 246 83 l 2
 430 85 537 94 616 113 c 0
 655 123 678 136 700 156 c 0
 724 181 735 206 731 239 c 0
 728 272 717 296 698 315 c 0
 686 327 676 333 653 340 c 0
 605 356 539 365 435 368 c 0
EndSplineSet
EndChar

StartChar: C
Encoding: 67 67 34
Width: 909
VWidth: 909
Flags: HW
LayerCount: 2
Fore
SplineSet
397 823 m 0
 417 824 560 824 585 823 c 0
 672 819 729 808 763 792 c 0
 776 785 788 777 799 766 c 0
 818 747 832 724 837 697 c 0
 840 686 841 671 839 664 c 0
 836 651 827 640 815 635 c 0
 808 631 809 631 799 631 c 0
 788 631 787 631 780 635 c 0
 771 639 765 644 761 651 c 0
 758 657 758 661 757 672 c 0
 755 688 750 698 739 709 c 0
 727 719 709 726 676 731 c 0
 648 735 623 738 578 740 c 0
 545 742 407 742 387 740 c 0
 287 733 238 705 209 644 c 0
 194 610 184 571 180 504 c 0
 178 479 178 339 180 315 c 0
 182 281 185 253 189 234 c 0
 195 204 205 179 217 159 c 0
 247 109 296 85 387 79 c 0
 407 77 545 77 578 79 c 0
 672 83 719 94 739 111 c 0
 750 122 755 131 757 147 c 0
 758 158 758 162 761 168 c 0
 765 175 771 180 780 184 c 0
 787 188 788 189 799 189 c 0
 809 189 808 188 815 184 c 0
 827 179 836 169 839 156 c 0
 843 140 835 110 824 88 c 0
 809 56 777 30 742 19 c 0
 705 7 656 0 582 -4 c 0
 549 -6 402 -6 382 -4 c 0
 319 0 280 10 241 29 c 0
 188 56 151 96 127 155 c 0
 111 195 101 240 97 308 c 0
 95 332 95 487 97 512 c 0
 100 557 105 588 113 620 c 0
 127 680 156 728 194 760 c 0
 242 800 303 819 397 823 c 0
EndSplineSet
EndChar

StartChar: D
Encoding: 68 68 35
Width: 884
VWidth: 909
Flags: HW
LayerCount: 2
Fore
SplineSet
133 818 m 0
 137 819 151 819 208 819 c 0
 299 818 342 816 398 811 c 0
 503 802 583 783 645 751 c 0
 664 742 679 733 691 724 c 0
 772 663 814 555 814 410 c 0
 814 265 772 156 691 95 c 0
 679 86 664 78 645 69 c 0
 583 37 503 17 398 8 c 0
 344 3 300 1 209 0 c 0
 156 0 139 0 135 1 c 0
 123 4 110 13 105 25 c 2
 102 31 l 1
 102 410 l 1
 102 790 l 1
 105 795 l 2
 109 806 121 814 133 818 c 0
298 734 m 0
 285 735 253 735 228 736 c 2
 184 736 l 1
 184 410 l 1
 184 83 l 1
 228 83 l 2
 354 85 432 92 501 106 c 0
 551 116 596 133 627 152 c 0
 685 187 717 251 727 348 c 0
 737 443 724 541 692 598 c 0
 672 635 646 659 606 679 c 0
 536 712 441 729 298 734 c 0
EndSplineSet
EndChar

StartChar: E
Encoding: 69 69 36
Width: 884
VWidth: 909
Flags: HW
LayerCount: 2
Fore
SplineSet
133 818 m 0
 137 819 201 819 455 819 c 0
 798 819 776 819 786 815 c 0
 815 800 815 756 786 741 c 0
 776 737 796 736 479 736 c 2
 184 736 l 1
 184 594 l 1
 184 452 l 1
 454 452 l 2
 748 452 726 451 736 446 c 0
 746 441 756 429 758 417 c 0
 761 401 750 381 736 374 c 0
 726 369 748 369 454 369 c 2
 184 369 l 1
 184 225 l 1
 184 83 l 1
 479 83 l 2
 796 83 776 82 786 78 c 0
 815 63 815 19 786 4 c 0
 776 0 798 0 455 0 c 0
 190 0 137 0 133 1 c 0
 121 5 109 14 105 25 c 2
 102 31 l 1
 102 410 l 1
 102 790 l 1
 105 795 l 2
 109 806 121 814 133 818 c 0
EndSplineSet
EndChar

StartChar: F
Encoding: 70 70 37
Width: 884
VWidth: 909
Flags: HW
LayerCount: 2
Fore
SplineSet
133 818 m 0
 137 819 201 819 455 819 c 0
 798 819 776 819 786 815 c 0
 815 800 815 756 786 741 c 0
 776 737 796 736 479 736 c 2
 184 736 l 1
 184 594 l 1
 184 452 l 1
 454 452 l 2
 748 452 726 451 736 446 c 0
 746 441 756 429 758 417 c 0
 761 401 750 381 736 374 c 0
 726 369 748 369 454 369 c 2
 184 369 l 1
 184 203 l 2
 184 84 185 37 184 33 c 0
 180 15 162 0 143 0 c 0
 124 0 106 15 102 33 c 0
 101 37 102 148 102 414 c 2
 102 790 l 1
 105 795 l 2
 109 806 121 814 133 818 c 0
EndSplineSet
EndChar

StartChar: G
Encoding: 71 71 38
Width: 909
VWidth: 909
Flags: HW
LayerCount: 2
Fore
SplineSet
397 823 m 0
 417 824 560 824 585 823 c 0
 672 819 729 808 763 792 c 0
 776 785 788 777 799 766 c 0
 818 747 832 724 837 697 c 0
 840 686 841 671 839 664 c 0
 836 651 827 640 815 635 c 0
 808 631 809 631 799 631 c 0
 788 631 787 631 780 635 c 0
 771 639 765 644 761 651 c 0
 758 657 758 661 757 672 c 0
 755 688 750 698 739 709 c 0
 727 719 709 726 676 731 c 0
 648 735 623 738 578 740 c 0
 545 742 407 742 387 740 c 0
 287 733 238 705 209 644 c 0
 194 610 184 571 180 504 c 0
 178 479 178 339 180 315 c 0
 182 281 185 253 189 234 c 0
 195 204 205 179 217 159 c 0
 247 109 296 85 387 79 c 0
 407 77 545 77 578 79 c 0
 637 82 675 87 705 94 c 0
 732 101 747 113 754 132 c 2
 757 138 l 1
 757 253 l 1
 757 369 l 1
 625 369 l 2
 508 369 491 369 487 371 c 0
 464 376 451 400 457 420 c 0
 461 435 472 446 487 450 c 0
 491 452 511 452 647 452 c 0
 774 452 804 452 808 451 c 0
 823 447 836 433 839 418 c 0
 840 414 840 374 840 271 c 2
 839 130 l 1
 837 120 l 2
 833 108 829 99 824 88 c 0
 809 57 777 30 742 19 c 0
 705 7 656 0 582 -4 c 0
 549 -6 402 -6 382 -4 c 0
 319 0 280 10 241 29 c 0
 188 56 151 96 127 155 c 0
 111 195 101 240 97 308 c 0
 95 332 95 487 97 512 c 0
 100 557 105 588 113 620 c 0
 127 680 156 728 194 760 c 0
 242 800 303 819 397 823 c 0
EndSplineSet
EndChar

StartChar: H
Encoding: 72 72 39
Width: 909
VWidth: 909
Flags: HW
LayerCount: 2
Fore
SplineSet
133 817 m 0
 156 823 180 809 184 786 c 0
 185 782 184 740 184 637 c 2
 184 494 l 1
 456 494 l 1
 726 494 l 1
 726 638 l 2
 726 765 726 783 728 787 c 0
 735 819 775 829 798 807 c 0
 802 802 806 793 808 786 c 0
 809 780 809 39 808 33 c 0
 804 15 787 0 768 0 c 0
 749 0 732 13 728 32 c 0
 726 36 726 58 726 224 c 2
 726 411 l 1
 456 411 l 1
 184 411 l 1
 184 224 l 2
 184 89 185 37 184 33 c 0
 180 15 162 0 143 0 c 0
 124 0 107 13 103 32 c 0
 101 36 102 78 102 410 c 0
 102 742 101 783 103 787 c 0
 107 802 119 813 133 817 c 0
EndSplineSet
EndChar

StartChar: I
Encoding: 73 73 40
Width: 556
VWidth: 909
Flags: HW
LayerCount: 2
Fore
SplineSet
267 817 m 0
 290 823 314 809 318 786 c 0
 319 780 319 39 318 33 c 0
 314 15 298 0 279 0 c 0
 260 0 243 13 239 32 c 0
 237 36 237 78 237 410 c 0
 237 742 237 783 239 787 c 0
 243 802 253 813 267 817 c 0
EndSplineSet
EndChar

StartChar: J
Encoding: 74 74 41
Width: 757
VWidth: 909
Flags: HW
LayerCount: 2
Fore
SplineSet
605 818 m 0
 627 823 652 809 656 785 c 0
 657 781 657 707 657 496 c 0
 656 197 656 205 652 178 c 0
 641 105 610 59 555 31 c 0
 518 13 479 4 418 1 c 0
 394 0 315 0 291 1 c 0
 250 3 220 7 191 15 c 0
 163 23 138 37 118 53 c 0
 81 85 59 133 53 201 c 0
 51 218 51 264 52 269 c 0
 56 291 78 306 98 302 c 0
 113 299 126 289 131 275 c 0
 133 271 133 269 134 246 c 0
 136 195 140 168 151 145 c 0
 165 112 199 93 254 87 c 0
 280 83 293 84 354 84 c 0
 396 84 419 84 430 85 c 0
 523 92 558 117 569 183 c 0
 574 211 573 201 574 504 c 2
 575 790 l 1
 578 795 l 2
 582 806 593 814 605 818 c 0
EndSplineSet
EndChar

StartChar: K
Encoding: 75 75 42
Width: 884
VWidth: 909
Flags: HW
LayerCount: 2
Fore
SplineSet
133 817 m 0
 156 823 180 809 184 786 c 0
 185 782 184 741 184 633 c 2
 184 483 l 2
 185 483 312 558 466 649 c 0
 621 740 749 814 752 816 c 0
 763 820 774 820 785 815 c 0
 812 803 817 767 795 748 c 0
 792 745 706 694 594 627 c 0
 484 564 396 511 396 511 c 2
 396 510 486 411 597 290 c 0
 708 169 800 67 802 65 c 0
 808 55 811 41 807 29 c 0
 799 2 765 -9 742 8 c 0
 739 10 645 114 531 239 c 0
 416 364 324 466 324 466 c 2
 323 467 301 456 253 427 c 2
 184 387 l 1
 184 212 l 2
 184 86 185 37 184 33 c 0
 180 15 162 0 143 0 c 0
 124 0 107 13 103 32 c 0
 101 36 102 78 102 410 c 0
 102 742 101 783 103 787 c 0
 107 802 119 813 133 817 c 0
EndSplineSet
EndChar

StartChar: L
Encoding: 76 76 43
Width: 859
VWidth: 909
Flags: HW
LayerCount: 2
Fore
SplineSet
133 817 m 0
 156 823 180 809 184 786 c 0
 185 782 184 688 184 432 c 2
 184 83 l 1
 479 83 l 2
 721 83 773 83 777 82 c 0
 795 77 808 60 808 42 c 0
 808 23 795 6 777 1 c 0
 770 -1 140 -1 133 1 c 0
 121 5 109 14 105 25 c 2
 102 31 l 1
 102 406 l 2
 102 672 101 782 102 786 c 0
 105 800 119 813 133 817 c 0
EndSplineSet
EndChar

StartChar: M
Encoding: 77 77 44
Width: 1313
VWidth: 909
Flags: HW
LayerCount: 2
Fore
SplineSet
133 817 m 0
 146 821 161 817 171 808 c 0
 174 805 271 670 415 465 c 0
 547 279 655 126 656 124 c 0
 657 122 670 140 899 464 c 0
 1032 652 1142 807 1144 808 c 0
 1155 817 1171 821 1183 818 c 0
 1197 814 1208 801 1212 786 c 0
 1213 780 1213 39 1212 33 c 0
 1208 10 1184 -4 1162 2 c 0
 1148 5 1139 15 1134 28 c 2
 1132 33 l 1
 1130 340 l 1
 1130 647 l 1
 909 335 l 2
 788 163 687 21 685 20 c 0
 678 14 667 9 657 9 c 0
 648 9 637 14 630 20 c 0
 628 21 527 163 406 335 c 2
 185 647 l 1
 184 340 l 2
 184 118 184 32 183 29 c 0
 175 7 154 -4 134 2 c 0
 119 6 107 17 103 32 c 0
 101 36 102 78 102 410 c 0
 102 742 101 783 103 787 c 0
 107 802 119 813 133 817 c 0
EndSplineSet
EndChar

StartChar: N
Encoding: 78 78 45
Width: 909
VWidth: 909
Flags: HW
LayerCount: 2
Fore
SplineSet
133 817 m 0
 145 821 158 818 169 810 c 0
 170 809 297 660 449 481 c 2
 726 155 l 1
 726 471 l 1
 727 787 l 1
 729 792 l 2
 734 805 744 814 758 817 c 0
 780 823 804 809 808 786 c 0
 809 780 809 39 808 33 c 0
 806 26 802 17 798 12 c 0
 784 -1 760 -4 744 7 c 0
 740 10 677 85 463 338 c 2
 185 665 l 1
 184 348 l 2
 184 120 184 32 183 29 c 0
 175 7 154 -4 134 2 c 0
 119 6 107 17 103 32 c 0
 101 36 102 78 102 410 c 0
 102 742 101 783 103 787 c 0
 107 802 119 813 133 817 c 0
EndSplineSet
EndChar

StartChar: O
Encoding: 79 79 46
Width: 1163
VWidth: 909
Flags: HW
LayerCount: 2
Fore
SplineSet
485 823 m 0
 544 825 676 825 719 822 c 0
 811 817 881 801 936 772 c 0
 1021 727 1067 657 1084 544 c 0
 1090 505 1092 480 1092 410 c 0
 1092 340 1090 314 1084 275 c 0
 1067 162 1021 92 936 47 c 0
 881 18 811 2 719 -3 c 0
 658 -7 505 -7 445 -3 c 0
 352 2 282 18 228 47 c 0
 142 92 96 162 79 275 c 0
 73 314 72 340 72 410 c 0
 72 480 73 505 79 544 c 0
 96 657 142 727 228 772 c 0
 290 804 370 819 485 823 c 0
671 741 m 0
 638 742 522 742 489 741 c 0
 378 737 309 722 257 692 c 0
 216 668 190 637 174 588 c 0
 161 547 154 492 154 410 c 0
 154 328 161 272 174 231 c 0
 185 199 198 176 218 156 c 0
 254 120 310 97 388 86 c 0
 434 79 484 78 582 78 c 0
 661 78 702 79 744 83 c 0
 812 88 867 104 906 127 c 0
 947 151 973 182 989 231 c 0
 1002 272 1010 328 1010 410 c 0
 1010 492 1002 547 989 588 c 0
 978 620 965 644 945 664 c 0
 909 700 853 722 775 733 c 0
 746 737 716 739 671 741 c 0
EndSplineSet
EndChar

StartChar: P
Encoding: 80 80 47
Width: 884
VWidth: 909
Flags: HW
LayerCount: 2
Fore
SplineSet
133 818 m 0
 141 820 298 819 371 816 c 0
 492 812 576 801 643 785 c 0
 679 775 700 767 725 750 c 0
 771 719 800 677 811 627 c 0
 813 615 813 613 813 594 c 0
 813 574 813 572 811 561 c 0
 798 496 753 446 686 417 c 0
 636 395 538 379 414 373 c 0
 363 370 277 369 217 369 c 2
 184 369 l 1
 184 203 l 2
 184 84 185 37 184 33 c 0
 180 15 162 0 143 0 c 0
 124 0 106 15 102 33 c 0
 101 37 102 148 102 414 c 2
 102 790 l 1
 105 795 l 2
 109 806 121 814 133 818 c 0
293 735 m 0
 266 736 232 736 215 736 c 2
 184 736 l 1
 184 594 l 1
 184 452 l 1
 215 452 l 2
 273 452 359 453 409 456 c 0
 509 461 592 472 640 487 c 0
 677 499 706 523 720 552 c 0
 748 605 720 664 655 693 c 0
 626 705 569 719 501 725 c 0
 445 731 382 733 293 735 c 0
EndSplineSet
EndChar

StartChar: Q
Encoding: 81 81 48
Width: 1163
VWidth: 909
Flags: HW
LayerCount: 2
Fore
SplineSet
485 823 m 0
 544 825 676 825 719 822 c 0
 811 817 881 801 936 772 c 0
 1021 727 1067 657 1084 544 c 0
 1090 505 1092 480 1092 410 c 0
 1092 328 1089 293 1078 246 c 0
 1066 192 1045 143 1016 110 c 0
 1013 107 1012 104 1012 103 c 2
 1012 103 1019 96 1029 87 c 0
 1040 79 1050 72 1052 70 c 0
 1056 66 1060 54 1061 48 c 0
 1063 36 1059 21 1050 12 c 0
 1038 0 1018 -4 1001 4 c 0
 998 6 985 17 971 29 c 2
 944 52 l 1
 932 45 l 2
 877 17 809 2 719 -3 c 0
 658 -7 505 -7 445 -3 c 0
 352 2 282 18 228 47 c 0
 142 92 96 162 79 275 c 0
 73 314 72 340 72 410 c 0
 72 480 73 505 79 544 c 0
 96 657 142 727 228 772 c 0
 290 804 370 819 485 823 c 0
671 741 m 0
 638 742 522 742 489 741 c 0
 378 737 309 722 257 692 c 0
 216 668 190 637 174 588 c 0
 161 547 154 492 154 410 c 0
 154 328 161 272 174 231 c 0
 185 199 198 176 218 156 c 0
 254 120 310 97 388 86 c 0
 434 79 484 78 582 78 c 0
 713 78 772 82 830 96 c 0
 842 99 868 109 872 111 c 1
 872 111 860 122 838 141 c 0
 795 177 791 180 787 185 c 0
 778 201 782 225 795 237 c 0
 806 248 824 251 838 246 c 0
 845 243 843 244 899 198 c 2
 946 158 l 1
 951 162 l 2
 993 208 1010 280 1010 410 c 0
 1010 492 1002 547 989 588 c 0
 978 620 965 644 945 664 c 0
 909 700 853 722 775 733 c 0
 746 737 716 739 671 741 c 0
EndSplineSet
EndChar

StartChar: R
Encoding: 82 82 49
Width: 909
VWidth: 909
Flags: HW
LayerCount: 2
Fore
SplineSet
133 818 m 0
 137 819 153 819 228 819 c 0
 334 818 384 817 449 813 c 0
 557 807 642 793 695 775 c 0
 700 773 714 768 723 764 c 0
 784 734 825 687 837 627 c 0
 839 616 839 612 839 594 c 0
 839 575 839 572 837 562 c 0
 825 501 784 454 723 424 c 0
 714 420 700 415 695 413 c 0
 643 396 562 382 460 375 c 1
 450 375 l 1
 635 225 l 2
 737 142 822 75 825 72 c 0
 837 62 842 44 838 29 c 0
 830 3 798 -8 775 6 c 0
 773 8 672 90 548 189 c 2
 324 370 l 1
 285 370 l 2
 265 369 232 369 216 369 c 2
 184 369 l 1
 184 203 l 2
 184 84 185 37 184 33 c 0
 180 15 162 0 143 0 c 0
 124 0 106 15 102 33 c 0
 101 37 102 148 102 414 c 2
 102 790 l 1
 105 795 l 2
 109 806 121 814 133 818 c 0
345 734 m 0
 328 735 286 735 250 736 c 2
 184 736 l 1
 184 594 l 1
 184 452 l 1
 250 452 l 2
 419 454 515 460 600 474 c 0
 666 486 698 499 725 526 c 0
 743 544 754 563 756 586 c 0
 758 601 755 620 748 634 c 0
 734 663 702 686 665 698 c 0
 603 718 499 730 345 734 c 0
EndSplineSet
EndChar

StartChar: S
Encoding: 83 83 50
Width: 909
VWidth: 909
Flags: HW
LayerCount: 2
Fore
SplineSet
383 823 m 0
 402 824 558 824 574 823 c 0
 664 818 719 806 750 784 c 0
 770 771 785 754 796 731 c 0
 804 714 809 692 809 675 c 0
 809 656 801 642 785 635 c 0
 778 631 778 631 768 631 c 0
 757 631 757 631 750 635 c 0
 735 642 727 654 726 676 c 0
 724 689 720 700 710 710 c 0
 706 714 701 717 697 719 c 0
 681 727 645 734 604 737 c 0
 567 741 547 741 463 741 c 0
 378 742 361 741 328 737 c 0
 268 732 226 718 207 698 c 0
 190 679 180 650 178 607 c 0
 177 584 180 568 187 553 c 0
 202 519 239 494 293 476 c 0
 338 462 386 454 452 452 c 0
 484 451 492 449 511 447 c 0
 640 435 733 394 778 327 c 0
 790 307 803 283 807 258 c 0
 812 227 809 179 799 142 c 0
 786 89 758 53 714 31 c 0
 674 11 627 0 554 -4 c 0
 528 -6 370 -6 340 -4 c 0
 248 0 194 13 162 35 c 0
 142 48 127 65 116 88 c 0
 108 105 102 127 102 144 c 0
 102 163 110 177 126 184 c 0
 133 188 133 189 143 189 c 0
 154 189 154 188 161 184 c 0
 176 177 183 165 184 143 c 0
 186 130 191 120 201 110 c 0
 208 103 216 98 230 94 c 0
 258 87 291 82 344 79 c 0
 374 77 525 77 550 79 c 0
 611 83 647 90 676 104 c 0
 696 114 710 129 717 154 c 0
 723 173 725 191 725 219 c 0
 726 243 723 256 715 272 c 0
 685 327 594 364 469 368 c 0
 411 370 386 373 356 377 c 0
 227 397 144 446 111 524 c 0
 102 546 96 566 95 592 c 0
 94 621 98 648 104 676 c 0
 108 691 112 700 119 715 c 0
 139 755 168 780 213 798 c 0
 253 813 305 820 383 823 c 0
EndSplineSet
EndChar

StartChar: T
Encoding: 84 84 51
Width: 859
VWidth: 909
Flags: HW
LayerCount: 2
Fore
SplineSet
108 818 m 0
 112 819 178 819 430 819 c 0
 773 819 751 819 761 815 c 0
 790 800 790 756 761 741 c 0
 751 737 759 736 609 736 c 2
 471 736 l 1
 471 387 l 2
 471 131 472 37 471 33 c 0
 467 15 449 0 430 0 c 0
 411 0 394 13 390 32 c 0
 388 36 389 76 389 387 c 2
 389 736 l 1
 250 736 l 2
 138 736 113 736 109 737 c 0
 90 742 77 758 77 778 c 0
 77 796 90 813 108 818 c 0
EndSplineSet
EndChar

StartChar: U
Encoding: 85 85 52
Width: 909
VWidth: 909
Flags: HW
LayerCount: 2
Fore
SplineSet
133 817 m 0
 153 823 176 813 183 791 c 0
 184 788 184 710 184 522 c 0
 184 329 185 254 186 247 c 0
 190 194 199 168 215 143 c 0
 221 133 236 119 246 113 c 0
 273 95 309 84 358 80 c 0
 402 76 508 76 553 80 c 0
 601 84 639 95 666 113 c 0
 676 119 690 133 696 143 c 0
 712 168 721 194 725 247 c 0
 726 254 726 329 726 522 c 2
 727 787 l 1
 729 792 l 2
 734 805 744 814 758 817 c 0
 780 823 804 809 808 785 c 0
 810 778 809 255 807 240 c 0
 802 186 794 155 779 122 c 0
 749 61 696 22 618 6 c 0
 577 -3 539 -5 456 -5 c 0
 372 -5 334 -3 294 6 c 0
 215 22 162 61 132 122 c 0
 125 138 120 149 116 167 c 0
 111 187 106 207 103 240 c 0
 101 254 100 779 102 786 c 0
 105 800 119 813 133 817 c 0
EndSplineSet
EndChar

StartChar: V
Encoding: 86 86 53
Width: 960
VWidth: 909
Flags: HW
LayerCount: 2
Fore
SplineSet
108 818 m 0
 113 819 122 819 127 817 c 0
 139 814 150 807 156 794 c 0
 158 790 231 627 319 434 c 0
 471 100 478 83 480 83 c 0
 482 83 490 100 642 434 c 0
 730 627 804 790 806 794 c 0
 812 807 822 814 834 817 c 0
 854 823 877 811 883 791 c 0
 885 785 886 773 884 768 c 0
 883 765 807 596 714 391 c 0
 553 35 544 18 540 13 c 0
 536 8 527 4 520 1 c 0
 513 -1 448 -1 441 1 c 0
 434 4 426 8 422 13 c 0
 418 18 409 35 248 391 c 0
 155 596 79 765 78 768 c 0
 76 773 76 785 78 791 c 0
 82 804 95 814 108 818 c 0
EndSplineSet
EndChar

StartChar: W
Encoding: 87 87 54
Width: 1364
VWidth: 909
Flags: HW
LayerCount: 2
Fore
SplineSet
108 818 m 0
 117 820 128 819 137 814 c 0
 143 810 151 804 154 797 c 0
 156 793 212 632 279 438 c 0
 346 244 400 85 400 85 c 1
 400 85 454 233 521 413 c 0
 589 593 644 742 646 745 c 0
 650 754 657 761 666 765 c 0
 672 768 673 768 683 768 c 0
 693 768 694 768 700 765 c 0
 709 761 715 754 719 745 c 0
 721 742 776 593 844 413 c 0
 911 233 965 85 965 85 c 1
 965 85 1019 244 1086 438 c 0
 1153 632 1209 793 1211 797 c 0
 1224 826 1265 827 1282 800 c 0
 1286 793 1289 784 1289 775 c 0
 1288 768 1281 748 1160 397 c 0
 1090 193 1032 26 1030 22 c 0
 1026 12 1016 5 1004 2 c 0
 997 -1 934 -1 927 2 c 0
 915 5 904 13 899 24 c 0
 897 28 849 159 790 318 c 0
 732 477 683 606 683 606 c 1
 683 606 635 477 577 318 c 0
 518 159 468 28 466 24 c 0
 461 13 450 5 438 2 c 0
 431 -1 368 -1 361 2 c 0
 349 5 339 12 335 22 c 0
 333 26 275 193 205 397 c 0
 84 748 78 768 77 775 c 0
 76 795 88 813 108 818 c 0
EndSplineSet
EndChar

StartChar: X
Encoding: 88 88 55
Width: 909
VWidth: 909
Flags: HW
LayerCount: 2
Fore
SplineSet
133 818 m 0
 145 821 161 817 170 809 c 0
 171 808 235 733 313 644 c 0
 391 555 455 482 455 482 c 1
 455 482 518 555 596 644 c 0
 674 733 738 807 740 809 c 0
 747 814 758 819 767 819 c 0
 787 819 804 803 808 783 c 0
 810 775 808 765 804 758 c 0
 802 754 742 687 655 586 c 0
 575 494 511 419 511 418 c 2
 511 418 579 338 663 242 c 0
 799 85 815 66 819 59 c 2
 823 52 l 1
 823 42 l 2
 823 32 823 31 820 25 c 0
 816 16 810 9 802 5 c 0
 794 1 787 0 780 0 c 0
 772 1 764 3 759 7 c 0
 755 10 708 63 605 183 c 0
 522 277 455 355 455 355 c 1
 455 355 388 277 306 183 c 0
 202 63 156 10 152 7 c 0
 147 3 138 1 130 0 c 0
 123 0 117 1 109 5 c 0
 101 9 94 16 90 25 c 0
 87 31 87 32 87 42 c 2
 87 52 l 1
 91 59 l 2
 95 66 112 85 248 242 c 0
 332 338 399 418 399 419 c 2
 399 419 334 494 255 586 c 0
 131 727 109 754 106 760 c 2
 102 766 l 1
 102 777 l 2
 102 788 102 790 105 795 c 0
 109 806 121 814 133 818 c 0
EndSplineSet
EndChar

StartChar: Y
Encoding: 89 89 56
Width: 910
VWidth: 910
Flags: HW
LayerCount: 2
Fore
SplineSet
133 818 m 0
 142 820 154 819 163 814 c 0
 166 813 171 809 175 804 c 0
 180 800 244 732 319 654 c 0
 394 576 455 512 455 512 c 1
 455 512 513 571 583 644 c 0
 749 818 740 810 747 814 c 0
 757 819 767 820 777 817 c 0
 798 812 812 792 808 772 c 0
 805 757 816 769 649 594 c 2
 497 436 l 1
 497 237 l 2
 497 93 497 37 496 33 c 0
 492 15 475 0 456 0 c 0
 437 0 421 13 416 32 c 0
 414 37 414 60 414 236 c 2
 414 434 l 1
 262 593 l 2
 85 777 103 758 103 777 c 0
 103 788 103 790 106 795 c 0
 111 806 121 814 133 818 c 0
EndSplineSet
EndChar

StartChar: Z
Encoding: 90 90 57
Width: 859
VWidth: 909
Flags: HW
LayerCount: 2
Fore
SplineSet
108 818 m 0
 114 819 745 820 752 818 c 0
 771 813 783 795 782 775 c 0
 781 766 779 760 775 754 c 0
 773 752 645 600 489 417 c 2
 208 84 l 1
 479 83 l 2
 675 83 751 82 754 81 c 0
 772 75 782 60 782 41 c 0
 782 22 770 6 752 1 c 0
 745 -1 115 -1 109 1 c 0
 89 6 76 24 77 44 c 0
 78 53 80 60 84 66 c 0
 86 68 214 219 370 403 c 2
 651 736 l 1
 381 736 l 2
 185 736 108 737 105 738 c 0
 87 744 77 759 77 778 c 0
 77 796 90 813 108 818 c 0
EndSplineSet
EndChar

StartChar: bracketleft
Encoding: 91 91 58
Width: 403
VWidth: 909
Flags: HW
LayerCount: 2
Fore
SplineSet
82 868 m 0
 89 870 316 871 323 869 c 0
 341 864 353 847 353 829 c 0
 353 810 341 793 323 788 c 0
 319 787 299 787 225 787 c 2
 134 787 l 1
 134 410 l 1
 134 32 l 1
 225 32 l 2
 299 32 319 32 323 31 c 0
 341 26 353 9 353 -9 c 0
 353 -28 341 -45 323 -50 c 0
 319 -51 296 -51 202 -51 c 0
 102 -51 87 -51 83 -49 c 0
 68 -45 57 -34 53 -19 c 0
 51 -15 51 32 51 410 c 0
 51 788 51 835 53 839 c 0
 57 854 68 864 82 868 c 0
EndSplineSet
EndChar

StartChar: backslash
Encoding: 92 92 59
Width: 707
VWidth: 909
Flags: HW
LayerCount: 2
Fore
SplineSet
82 818 m 0
 94 821 111 817 121 808 c 0
 125 804 648 66 652 60 c 0
 664 36 653 8 627 1 c 0
 614 -2 597 2 587 12 c 0
 583 16 59 753 55 759 c 0
 43 783 56 811 82 818 c 0
EndSplineSet
EndChar

StartChar: bracketright
Encoding: 93 93 60
Width: 403
VWidth: 909
Flags: HW
LayerCount: 2
Fore
SplineSet
82 869 m 0
 88 870 316 871 323 869 c 0
 337 865 348 853 352 838 c 0
 353 832 353 -12 352 -18 c 0
 348 -33 337 -46 323 -50 c 0
 316 -52 89 -52 83 -50 c 0
 64 -45 51 -28 51 -9 c 0
 51 9 64 26 83 31 c 0
 87 32 104 32 178 32 c 2
 270 32 l 1
 270 410 l 1
 270 787 l 1
 178 787 l 2
 104 787 87 787 83 788 c 0
 64 793 51 810 51 829 c 0
 51 847 64 864 82 869 c 0
EndSplineSet
EndChar

StartChar: asciicircum
Encoding: 94 94 61
Width: 505
VWidth: 909
Flags: HW
LayerCount: 2
Fore
SplineSet
168 815 m 0
 210 818 246 819 250 819 c 0
 259 819 417 810 422 809 c 0
 441 805 455 788 455 769 c 0
 455 749 441 732 422 728 c 0
 418 727 406 728 335 732 c 2
 253 736 l 1
 171 732 l 2
 100 728 89 727 85 728 c 0
 66 732 51 749 51 769 c 0
 51 788 66 806 86 809 c 0
 90 810 126 812 168 815 c 0
EndSplineSet
EndChar

StartChar: underscore
Encoding: 95 95 62
Width: 909
VWidth: 909
Flags: HW
LayerCount: 2
Fore
SplineSet
31 -2 m 0
 38 1 873 1 880 -1 c 0
 894 -5 905 -18 909 -33 c 0
 913 -55 900 -76 880 -82 c 0
 876 -83 802 -83 455 -83 c 0
 82 -83 36 -83 32 -81 c 0
 17 -77 6 -66 2 -51 c 0
 -4 -31 9 -7 31 -2 c 0
EndSplineSet
EndChar

StartChar: a
Encoding: 97 97 63
Width: 859
VWidth: 909
Flags: HW
LayerCount: 2
Fore
SplineSet
331 618 m 0
 368 619 485 619 505 618 c 0
 581 615 629 606 669 587 c 0
 686 579 697 571 709 559 c 0
 738 531 754 491 758 441 c 0
 759 426 759 39 758 33 c 0
 754 18 741 5 727 1 c 0
 715 -2 700 2 689 10 c 0
 685 14 679 24 678 28 c 2
 676 31 l 1
 676 31 671 30 666 27 c 0
 627 8 578 -1 505 -4 c 0
 475 -5 385 -5 356 -4 c 0
 295 -1 249 6 214 18 c 0
 202 22 182 32 173 37 c 0
 127 69 102 127 102 205 c 0
 102 248 110 283 123 313 c 0
 139 346 160 367 193 382 c 0
 233 402 280 411 356 414 c 0
 385 415 475 415 505 414 c 0
 578 411 627 402 666 383 c 2
 676 379 l 1
 676 408 l 2
 675 438 674 446 671 461 c 0
 665 488 653 502 634 512 c 0
 605 526 566 534 497 537 c 0
 465 538 327 538 295 536 c 0
 241 533 204 527 189 522 c 0
 185 520 184 521 184 517 c 0
 182 512 176 501 172 497 c 0
 169 495 164 491 160 489 c 0
 154 486 152 487 143 487 c 0
 133 487 133 486 127 489 c 0
 118 493 112 500 108 508 c 0
 100 522 101 541 111 560 c 0
 123 584 147 599 186 607 c 0
 215 613 272 617 331 618 c 0
501 332 m 0
 474 333 384 333 356 332 c 0
 295 329 253 321 225 307 c 0
 216 303 205 292 201 284 c 0
 190 265 185 242 185 205 c 0
 185 168 190 145 201 126 c 0
 205 118 216 106 225 102 c 0
 254 88 293 81 360 78 c 0
 389 77 471 77 501 78 c 0
 567 81 606 88 635 102 c 0
 644 106 655 118 659 126 c 0
 670 145 675 168 675 205 c 0
 675 242 670 265 659 284 c 0
 655 292 644 303 635 307 c 0
 606 321 567 329 501 332 c 0
EndSplineSet
EndChar

StartChar: b
Encoding: 98 98 64
Width: 859
VWidth: 909
Flags: HW
LayerCount: 2
Fore
SplineSet
133 817 m 0
 156 823 180 809 184 786 c 0
 185 782 184 757 184 699 c 2
 184 616 l 1
 188 618 l 2
 195 622 212 632 224 636 c 0
 260 650 302 657 361 660 c 0
 389 661 471 661 496 660 c 0
 578 656 630 642 674 609 c 0
 685 600 703 582 711 571 c 0
 741 530 757 483 762 412 c 0
 764 392 764 265 762 245 c 0
 759 205 751 171 741 143 c 0
 737 132 728 111 722 101 c 0
 694 57 651 25 598 11 c 0
 568 2 539 -2 496 -4 c 0
 471 -5 385 -5 356 -4 c 0
 281 -1 232 9 193 29 c 2
 184 33 l 1
 183 30 l 2
 182 26 177 16 173 12 c 0
 162 2 147 -2 134 2 c 0
 119 6 107 17 103 32 c 0
 101 36 102 78 102 410 c 0
 102 742 101 783 103 787 c 0
 107 802 119 813 133 817 c 0
490 578 m 0
 473 579 394 579 372 578 c 0
 292 576 242 563 217 536 c 0
 198 516 188 486 185 436 c 0
 184 416 184 205 185 189 c 0
 188 151 198 126 215 112 c 0
 221 107 238 98 251 94 c 0
 273 87 301 82 340 79 c 0
 360 77 460 77 487 78 c 0
 552 81 588 91 618 111 c 0
 627 116 643 132 649 141 c 0
 662 161 672 189 676 223 c 0
 680 252 680 266 680 329 c 0
 680 391 680 404 676 433 c 0
 672 467 662 494 649 516 c 0
 643 524 627 541 618 546 c 0
 588 566 551 575 490 578 c 0
EndSplineSet
EndChar

StartChar: c
Encoding: 99 99 65
Width: 859
VWidth: 909
Flags: HW
LayerCount: 2
Fore
SplineSet
370 618 m 0
 385 619 535 619 551 618 c 0
 612 614 658 608 683 598 c 0
 727 581 755 544 758 503 c 0
 759 489 755 478 746 469 c 0
 738 460 729 456 717 456 c 0
 705 456 695 460 687 468 c 0
 680 476 676 487 676 496 c 0
 676 504 668 514 657 519 c 0
 641 526 601 533 544 536 c 0
 514 538 371 538 351 536 c 0
 288 532 251 519 224 494 c 0
 197 469 184 435 180 375 c 0
 178 355 178 260 180 241 c 0
 184 180 197 146 224 121 c 0
 251 96 288 83 351 79 c 0
 371 77 514 77 544 79 c 0
 601 82 641 88 657 95 c 0
 668 100 676 111 676 119 c 0
 676 128 680 138 687 146 c 0
 695 154 705 159 717 159 c 0
 729 159 738 154 746 145 c 0
 755 136 759 126 758 112 c 0
 757 95 751 75 740 60 c 0
 730 47 712 31 695 23 c 0
 666 9 623 0 548 -4 c 0
 518 -6 369 -6 347 -4 c 0
 267 1 216 19 174 54 c 0
 137 85 112 130 102 187 c 0
 96 222 96 236 96 307 c 0
 96 377 96 392 102 427 c 0
 114 495 144 541 194 574 c 0
 236 603 288 614 370 618 c 0
EndSplineSet
EndChar

StartChar: d
Encoding: 100 100 66
Width: 859
VWidth: 909
Flags: HW
LayerCount: 2
Fore
SplineSet
707 817 m 0
 730 823 754 809 758 786 c 0
 759 780 759 39 758 33 c 0
 754 18 741 5 727 1 c 0
 715 -2 700 2 689 10 c 0
 685 14 679 24 678 28 c 0
 677 30 677 31 676 31 c 2
 676 31 672 29 666 26 c 0
 629 8 578 -1 505 -4 c 0
 475 -5 392 -5 366 -4 c 0
 280 0 224 16 180 53 c 0
 149 80 127 117 115 162 c 0
 105 200 102 231 102 307 c 0
 102 382 105 415 115 453 c 0
 119 470 123 481 131 497 c 0
 162 560 219 600 303 612 c 0
 336 617 365 620 434 620 c 0
 500 620 532 618 568 614 c 0
 606 610 640 601 665 589 c 0
 670 586 675 585 676 585 c 2
 676 684 l 2
 676 770 675 783 677 787 c 0
 681 802 693 813 707 817 c 0
501 537 m 0
 473 538 391 538 367 537 c 0
 281 533 234 512 209 467 c 0
 191 436 184 394 184 307 c 0
 184 230 189 195 201 164 c 0
 217 122 251 97 304 86 c 0
 334 80 351 79 416 78 c 0
 538 77 596 83 634 102 c 0
 653 112 665 127 671 154 c 0
 675 172 676 172 676 307 c 0
 676 442 675 443 671 461 c 0
 665 488 653 502 634 512 c 0
 605 525 566 534 501 537 c 0
EndSplineSet
EndChar

StartChar: e
Encoding: 101 101 67
Width: 834
VWidth: 909
Flags: HW
LayerCount: 2
Fore
SplineSet
359 618 m 0
 363 618 387 620 414 620 c 0
 462 620 487 619 512 616 c 0
 614 606 678 562 710 481 c 0
 721 454 728 419 732 379 c 0
 734 359 735 293 733 287 c 0
 730 272 717 258 702 254 c 0
 698 253 651 253 438 253 c 2
 179 253 l 1
 179 246 l 2
 179 236 182 209 184 197 c 0
 196 119 239 87 339 79 c 0
 345 78 377 79 410 78 c 0
 520 77 584 81 622 90 c 0
 636 94 649 104 650 111 c 0
 652 125 652 128 656 133 c 0
 660 141 667 148 676 152 c 0
 682 155 682 155 692 155 c 0
 701 155 703 155 709 152 c 0
 718 148 724 141 728 133 c 0
 732 125 733 118 733 108 c 0
 731 84 721 62 702 44 c 0
 692 33 684 27 670 20 c 0
 658 15 646 10 629 7 c 0
 582 -3 522 -6 410 -5 c 0
 375 -4 340 -5 334 -4 c 0
 264 1 217 16 180 44 c 0
 137 77 112 121 101 186 c 0
 97 213 96 229 95 283 c 0
 94 370 98 406 109 450 c 0
 114 469 118 479 127 497 c 0
 160 566 219 603 309 615 c 0
 322 617 345 618 359 618 c 0
493 536 m 0
 479 537 376 538 356 537 c 0
 287 533 248 519 221 490 c 0
 195 462 182 421 180 360 c 0
 179 353 179 345 178 341 c 2
 178 336 l 1
 414 336 l 1
 651 336 l 1
 650 345 l 1
 647 413 639 448 620 478 c 0
 614 486 599 502 590 507 c 0
 566 523 538 532 493 536 c 0
EndSplineSet
EndChar

StartChar: f
Encoding: 102 102 68
Width: 630
VWidth: 909
Flags: HW
LayerCount: 2
Fore
SplineSet
326 823 m 0
 330 823 342 824 352 824 c 0
 402 824 444 817 481 799 c 0
 510 785 530 768 548 743 c 0
 555 733 569 706 574 692 c 0
 588 652 598 601 602 541 c 0
 605 512 606 459 606 422 c 0
 605 390 605 387 603 383 c 0
 599 371 590 361 578 357 c 0
 572 355 559 355 553 357 c 0
 541 361 530 371 526 383 c 0
 524 387 524 390 523 437 c 0
 522 516 519 558 512 600 c 0
 507 638 494 673 482 692 c 0
 466 718 432 735 386 740 c 0
 374 742 335 742 323 740 c 0
 277 735 241 718 225 692 c 0
 216 679 206 652 201 627 c 0
 194 596 189 557 186 503 c 2
 185 494 l 1
 316 494 l 1
 447 494 l 1
 453 490 l 2
 465 486 474 476 478 464 c 0
 480 458 480 445 478 439 c 0
 474 427 465 418 453 414 c 2
 447 412 l 1
 315 411 l 1
 184 411 l 1
 184 224 l 2
 184 89 185 37 184 33 c 0
 180 14 161 0 143 0 c 0
 127 0 111 11 105 25 c 2
 102 31 l 1
 102 242 l 2
 102 456 101 499 105 541 c 0
 109 601 120 652 134 692 c 0
 139 706 153 733 160 743 c 0
 178 768 197 785 226 799 c 0
 255 812 288 819 326 823 c 0
EndSplineSet
EndChar

StartChar: g
Encoding: 103 103 69
Width: 859
VWidth: 909
Flags: HW
LayerCount: 2
Fore
SplineSet
370 618 m 0
 385 619 535 619 551 618 c 0
 608 615 646 610 676 600 c 2
 684 598 l 1
 688 602 l 2
 698 612 714 617 727 613 c 0
 742 609 755 596 758 581 c 0
 759 577 758 490 758 246 c 2
 758 -84 l 1
 756 -94 l 2
 750 -121 738 -140 721 -157 c 0
 703 -175 686 -185 658 -193 c 0
 628 -201 593 -206 540 -209 c 0
 511 -211 350 -211 322 -209 c 0
 269 -206 232 -201 202 -193 c 0
 174 -185 157 -175 139 -157 c 0
 117 -135 104 -105 102 -74 c 0
 102 -62 104 -56 108 -47 c 0
 112 -39 119 -33 127 -29 c 0
 132 -26 132 -26 143 -26 c 0
 153 -26 155 -26 160 -29 c 0
 168 -33 175 -39 179 -47 c 0
 183 -53 184 -60 184 -70 c 0
 186 -85 196 -98 208 -105 c 0
 224 -115 266 -122 326 -126 c 0
 354 -128 507 -128 536 -126 c 0
 595 -122 636 -115 652 -105 c 0
 661 -100 669 -92 673 -81 c 0
 675 -77 675 -75 676 -31 c 2
 676 13 l 1
 674 13 l 1
 640 3 605 -1 548 -4 c 0
 518 -6 369 -6 347 -4 c 0
 267 1 216 19 174 54 c 0
 137 85 112 130 102 187 c 0
 96 222 96 236 96 307 c 0
 96 377 96 392 102 427 c 0
 114 495 144 541 194 574 c 0
 236 603 288 614 370 618 c 0
546 536 m 0
 530 537 389 538 374 537 c 0
 329 535 299 529 274 521 c 0
 221 504 193 469 184 406 c 0
 180 377 179 362 179 307 c 0
 179 251 180 238 184 210 c 0
 191 154 213 120 254 100 c 0
 277 89 307 83 351 79 c 0
 371 77 514 77 544 79 c 0
 601 82 641 88 657 95 c 0
 663 99 671 107 674 111 c 2
 676 115 l 1
 676 307 l 1
 676 500 l 1
 674 504 l 2
 671 508 663 515 657 519 c 0
 641 526 600 533 546 536 c 0
EndSplineSet
EndChar

StartChar: h
Encoding: 104 104 70
Width: 859
VWidth: 909
Flags: HW
LayerCount: 2
Fore
SplineSet
133 817 m 0
 156 823 180 809 184 786 c 0
 185 782 184 754 184 692 c 2
 184 601 l 1
 193 603 l 2
 220 610 258 615 311 618 c 0
 341 620 492 620 512 618 c 0
 590 613 640 596 681 561 c 0
 720 528 743 483 753 418 c 0
 757 386 757 389 758 208 c 0
 758 82 759 38 758 34 c 0
 754 10 730 -4 708 2 c 0
 694 5 683 15 678 28 c 2
 676 33 l 1
 676 201 l 2
 675 381 674 379 670 411 c 0
 665 448 652 476 632 494 c 0
 605 520 568 532 507 536 c 0
 485 538 345 538 315 536 c 0
 253 533 214 526 200 517 c 0
 195 514 188 509 186 505 c 0
 184 501 184 491 184 269 c 0
 184 101 185 37 184 33 c 0
 180 15 162 0 143 0 c 0
 124 0 107 13 103 32 c 0
 101 36 102 78 102 410 c 0
 102 742 101 783 103 787 c 0
 107 802 119 813 133 817 c 0
EndSplineSet
EndChar

StartChar: i
Encoding: 105 105 71
Width: 454
VWidth: 909
Flags: HW
LayerCount: 2
Fore
SplineSet
217 757 m 0
 247 765 274 739 268 709 c 0
 264 686 239 671 217 677 c 0
 195 682 182 703 186 725 c 0
 190 739 203 753 217 757 c 0
217 612 m 0
 240 618 264 605 268 582 c 0
 269 576 269 39 268 33 c 0
 264 14 246 0 228 0 c 0
 212 0 196 11 190 25 c 2
 187 31 l 1
 187 307 l 1
 187 585 l 1
 190 591 l 2
 195 602 206 609 217 612 c 0
EndSplineSet
EndChar

StartChar: j
Encoding: 106 106 72
Width: 606
VWidth: 909
Flags: HW
LayerCount: 2
Fore
SplineSet
454 757 m 0
 484 765 511 739 505 709 c 0
 501 686 477 671 455 677 c 0
 433 682 419 703 423 725 c 0
 427 739 440 753 454 757 c 0
454 612 m 0
 477 618 501 605 505 582 c 0
 506 578 506 519 506 365 c 0
 506 164 506 119 504 82 c 0
 497 -35 470 -114 426 -153 c 0
 411 -167 398 -175 378 -184 c 0
 324 -211 243 -217 176 -201 c 0
 114 -187 70 -153 44 -103 c 0
 21 -58 8 2 3 82 c 0
 0 128 -1 218 2 227 c 0
 9 259 48 270 71 248 c 0
 75 243 80 233 82 226 c 0
 83 223 83 210 83 191 c 0
 83 70 92 -3 112 -53 c 0
 120 -73 128 -84 140 -95 c 0
 169 -119 219 -131 275 -127 c 0
 321 -123 357 -109 377 -85 c 0
 401 -56 417 5 421 91 c 0
 422 100 421 110 422 114 c 0
 422 117 422 223 423 351 c 2
 424 585 l 1
 427 591 l 2
 432 602 443 609 454 612 c 0
EndSplineSet
EndChar

StartChar: k
Encoding: 107 107 73
Width: 808
VWidth: 909
Flags: HW
LayerCount: 2
Fore
SplineSet
133 817 m 0
 156 823 180 809 184 786 c 0
 185 782 184 725 184 573 c 0
 184 384 184 366 186 366 c 1
 186 367 302 431 442 509 c 0
 582 587 698 651 700 652 c 0
 710 656 723 655 734 651 c 0
 740 648 750 641 753 635 c 0
 760 623 760 606 753 594 c 0
 748 583 752 586 563 481 c 0
 467 428 388 383 388 382 c 2
 388 382 468 312 565 227 c 0
 663 142 745 73 748 70 c 0
 770 47 757 8 725 1 c 0
 716 -1 702 1 694 6 c 0
 691 8 323 328 313 338 c 2
 310 340 l 1
 248 306 l 1
 185 270 l 1
 184 152 l 2
 184 69 184 32 183 29 c 0
 176 7 154 -4 134 2 c 0
 119 6 107 17 103 32 c 0
 101 36 102 78 102 410 c 0
 102 742 101 783 103 787 c 0
 107 802 119 813 133 817 c 0
EndSplineSet
EndChar

StartChar: l
Encoding: 108 108 74
Width: 454
VWidth: 909
Flags: HW
LayerCount: 2
Fore
SplineSet
217 817 m 0
 240 823 264 809 268 786 c 0
 269 780 269 39 268 33 c 0
 264 15 247 0 228 0 c 0
 209 0 192 13 188 32 c 0
 186 36 186 78 186 410 c 0
 186 742 186 783 188 787 c 0
 192 802 203 813 217 817 c 0
EndSplineSet
EndChar

StartChar: m
Encoding: 109 109 75
Width: 1212
VWidth: 909
Flags: HW
LayerCount: 2
Fore
SplineSet
319 618 m 0
 336 619 407 619 422 618 c 0
 494 614 542 599 579 564 c 0
 586 558 598 544 603 537 c 2
 606 530 l 1
 610 538 l 2
 627 562 649 581 678 594 c 0
 700 605 721 610 750 614 c 0
 779 618 788 620 840 620 c 0
 891 620 900 618 929 614 c 0
 957 610 977 605 999 594 c 0
 1029 580 1051 562 1069 535 c 0
 1093 499 1105 457 1110 391 c 0
 1112 375 1113 41 1111 34 c 0
 1107 10 1083 -4 1061 2 c 0
 1047 5 1037 15 1032 28 c 2
 1030 33 l 1
 1029 202 l 2
 1028 378 1029 380 1025 411 c 0
 1018 468 999 502 965 519 c 0
 938 531 903 537 840 537 c 0
 775 537 740 531 714 519 c 0
 679 502 659 468 652 411 c 0
 648 380 649 378 648 202 c 0
 648 83 647 32 646 29 c 0
 639 7 617 -4 597 2 c 0
 583 5 573 15 568 28 c 2
 566 33 l 1
 565 202 l 2
 564 374 565 378 561 408 c 0
 556 458 539 494 513 512 c 0
 490 527 464 534 415 537 c 0
 391 538 319 538 301 536 c 0
 241 531 210 519 198 493 c 0
 192 481 187 464 185 440 c 0
 184 431 184 358 184 232 c 0
 184 91 185 37 184 33 c 0
 180 15 162 0 143 0 c 0
 124 0 107 13 103 32 c 0
 101 36 102 66 102 307 c 0
 102 547 101 579 103 583 c 0
 111 615 150 626 173 602 c 0
 176 599 178 596 179 593 c 2
 181 589 l 1
 189 594 l 2
 220 608 262 616 319 618 c 0
EndSplineSet
EndChar

StartChar: n
Encoding: 110 110 76
Width: 859
VWidth: 909
Flags: HW
LayerCount: 2
Fore
SplineSet
361 618 m 0
 380 619 502 619 514 618 c 0
 591 612 641 596 681 561 c 0
 720 528 743 483 753 418 c 0
 757 386 757 389 758 208 c 0
 758 82 759 38 758 34 c 0
 754 10 730 -4 708 2 c 0
 694 5 683 15 678 28 c 2
 676 33 l 1
 676 201 l 2
 675 381 674 379 670 411 c 0
 665 448 652 476 632 494 c 0
 605 520 568 532 507 536 c 0
 485 538 365 538 340 536 c 0
 318 535 293 531 280 528 c 0
 249 523 223 514 211 504 c 0
 199 492 190 472 186 446 c 0
 185 440 185 395 184 236 c 0
 184 92 184 32 183 29 c 0
 174 3 147 -7 124 5 c 0
 118 8 111 16 108 22 c 0
 103 32 102 10 102 307 c 0
 102 547 101 579 103 583 c 0
 107 602 124 614 143 614 c 0
 158 614 175 604 181 591 c 0
 182 587 183 585 184 585 c 1
 184 586 190 587 196 590 c 0
 235 607 285 615 361 618 c 0
EndSplineSet
EndChar

StartChar: o
Encoding: 111 111 77
Width: 960
VWidth: 909
Flags: HW
LayerCount: 2
Fore
SplineSet
407 618 m 0
 426 619 573 619 586 618 c 0
 684 612 743 596 792 562 c 0
 853 521 884 454 889 351 c 0
 890 328 890 286 889 264 c 0
 882 129 832 56 726 20 c 0
 688 8 646 0 584 -4 c 0
 558 -6 404 -6 378 -4 c 0
 279 2 219 18 169 52 c 0
 108 93 77 160 72 264 c 0
 71 286 71 328 72 351 c 0
 79 485 128 558 234 594 c 0
 279 609 329 615 407 618 c 0
558 537 m 0
 529 538 429 538 400 537 c 0
 328 534 281 525 244 509 c 0
 184 483 160 439 155 344 c 0
 154 322 154 291 155 271 c 0
 159 201 171 162 199 134 c 0
 230 104 284 85 366 80 c 0
 419 76 542 76 596 80 c 0
 646 84 686 92 718 105 c 0
 765 125 790 158 800 217 c 0
 809 266 809 348 800 398 c 0
 794 435 782 460 763 480 c 0
 732 510 677 530 596 535 c 0
 588 536 570 536 558 537 c 0
EndSplineSet
EndChar

StartChar: p
Encoding: 112 112 78
Width: 834
VWidth: 909
Flags: HW
LayerCount: 2
Fore
SplineSet
342 618 m 0
 367 619 489 619 504 618 c 0
 571 613 614 601 651 579 c 0
 709 544 742 492 753 411 c 0
 757 382 758 368 758 307 c 0
 758 245 757 233 753 204 c 0
 742 123 709 71 651 36 c 0
 614 13 571 1 503 -4 c 0
 483 -6 351 -6 328 -4 c 0
 269 0 230 9 198 23 c 0
 192 26 186 28 185 29 c 0
 184 29 184 8 184 -70 c 0
 184 -140 185 -168 184 -172 c 0
 180 -190 162 -205 143 -205 c 0
 124 -205 107 -192 103 -173 c 0
 101 -169 102 -127 102 205 c 0
 102 537 101 579 103 583 c 0
 111 615 150 626 173 602 c 0
 176 599 179 595 180 591 c 2
 183 586 l 1
 191 589 l 2
 226 606 275 615 342 618 c 0
501 536 m 0
 485 537 371 538 347 537 c 0
 310 535 280 530 258 525 c 0
 220 515 204 504 194 477 c 0
 190 466 186 450 185 436 c 0
 184 420 184 194 185 178 c 0
 187 156 194 136 201 124 c 0
 203 121 206 116 210 112 c 0
 219 103 234 95 258 89 c 0
 295 80 340 77 434 78 c 0
 487 79 501 79 528 82 c 0
 594 90 633 113 653 155 c 0
 662 171 667 189 671 214 c 0
 675 240 675 254 675 307 c 0
 675 360 675 374 671 400 c 0
 662 468 634 503 578 521 c 0
 558 528 534 533 501 536 c 0
EndSplineSet
EndChar

StartChar: q
Encoding: 113 113 79
Width: 834
VWidth: 909
Flags: HW
LayerCount: 2
Fore
SplineSet
356 618 m 0
 371 619 499 619 511 618 c 0
 556 614 589 609 617 600 c 0
 627 596 650 587 651 586 c 0
 651 585 653 587 655 591 c 0
 667 617 702 622 722 602 c 0
 726 597 731 589 733 582 c 0
 734 576 734 -166 733 -172 c 0
 729 -190 711 -205 692 -205 c 0
 673 -205 656 -192 652 -173 c 0
 650 -169 651 -155 651 -70 c 2
 651 29 l 2
 650 29 645 27 639 24 c 0
 606 9 567 0 509 -4 c 0
 485 -6 353 -6 333 -4 c 0
 273 0 235 11 199 28 c 0
 170 41 147 59 129 82 c 0
 101 117 84 163 79 222 c 0
 75 260 75 354 79 392 c 0
 83 432 92 467 105 496 c 0
 125 537 157 567 199 587 c 0
 239 607 283 615 356 618 c 0
486 537 m 0
 474 538 442 537 415 537 c 0
 363 537 362 538 338 536 c 0
 252 531 204 507 181 461 c 0
 170 438 164 413 161 373 c 0
 159 353 159 261 161 242 c 0
 164 201 170 177 181 155 c 0
 204 108 250 85 336 79 c 0
 356 77 450 77 481 78 c 0
 547 81 582 88 611 102 c 0
 620 106 631 116 635 124 c 0
 642 136 648 156 650 178 c 0
 651 194 651 420 650 436 c 0
 648 458 642 478 635 490 c 0
 631 498 620 508 611 512 c 0
 583 526 547 534 486 537 c 0
EndSplineSet
EndChar

StartChar: r
Encoding: 114 114 80
Width: 757
VWidth: 909
Flags: HW
LayerCount: 2
Fore
SplineSet
340 618 m 0
 360 619 475 619 501 618 c 0
 609 614 650 607 681 580 c 0
 700 564 711 532 706 512 c 0
 702 496 689 484 673 481 c 0
 651 477 630 492 626 514 c 0
 625 519 623 519 618 522 c 0
 606 527 574 533 524 536 c 0
 495 538 371 538 341 537 c 0
 290 535 261 529 236 521 c 0
 222 516 214 512 207 505 c 0
 197 496 190 482 186 460 c 0
 185 452 185 432 184 242 c 0
 184 92 184 32 183 29 c 0
 177 12 160 0 143 0 c 0
 127 0 111 11 105 25 c 2
 102 31 l 1
 102 304 l 2
 102 497 101 578 102 582 c 0
 106 604 132 618 154 613 c 0
 164 609 175 602 179 593 c 0
 180 591 182 589 182 589 c 1
 182 589 186 591 190 593 c 0
 224 608 273 616 340 618 c 0
EndSplineSet
EndChar

StartChar: s
Encoding: 115 115 81
Width: 859
VWidth: 909
Flags: HW
LayerCount: 2
Fore
SplineSet
346 618 m 0
 372 619 529 619 551 618 c 0
 612 614 658 608 683 598 c 0
 727 581 755 544 758 503 c 0
 759 489 755 478 746 469 c 0
 738 460 729 456 717 456 c 0
 705 456 695 460 687 468 c 0
 680 476 676 487 676 496 c 0
 676 504 668 514 657 519 c 0
 641 526 601 533 544 536 c 0
 514 538 358 538 332 536 c 0
 280 533 247 527 222 517 c 0
 217 515 211 513 209 512 c 0
 192 501 180 479 178 450 c 0
 177 433 181 416 188 404 c 0
 192 396 205 384 214 378 c 0
 249 355 307 342 372 344 c 0
 392 345 404 345 434 349 c 0
 494 356 552 352 603 340 c 0
 689 320 744 271 756 202 c 0
 759 189 760 165 758 152 c 0
 754 115 741 85 721 60 c 0
 690 22 635 2 534 -4 c 0
 493 -7 337 -6 293 -3 c 0
 243 1 198 8 178 16 c 0
 140 30 113 59 104 94 c 0
 101 105 100 119 102 126 c 0
 106 141 118 154 132 158 c 0
 137 159 150 159 155 158 c 0
 172 153 184 135 184 119 c 0
 184 111 192 100 203 95 c 0
 217 89 253 83 298 80 c 0
 342 77 488 76 528 79 c 0
 583 83 623 90 643 101 c 0
 662 111 673 134 676 165 c 0
 677 191 669 209 653 225 c 0
 633 245 603 259 560 265 c 0
 537 269 526 269 496 269 c 0
 467 269 463 269 423 265 c 0
 332 255 245 267 187 298 c 0
 138 324 108 363 98 413 c 0
 96 422 96 425 96 444 c 0
 96 466 97 473 102 492 c 0
 113 537 140 571 178 589 c 0
 215 606 269 615 346 618 c 0
EndSplineSet
EndChar

StartChar: t
Encoding: 116 116 82
Width: 606
VWidth: 909
Flags: HW
LayerCount: 2
Fore
SplineSet
293 817 m 0
 316 823 340 809 344 786 c 0
 345 782 345 756 345 698 c 2
 345 614 l 1
 432 614 l 2
 502 614 521 614 525 613 c 0
 543 608 556 591 556 573 c 0
 556 554 543 537 525 532 c 0
 521 531 502 531 432 531 c 2
 345 531 l 1
 345 285 l 2
 345 105 345 37 344 33 c 0
 340 15 323 0 304 0 c 0
 285 0 268 13 264 32 c 0
 262 36 262 65 262 284 c 2
 262 531 l 1
 175 531 l 2
 105 531 87 531 83 532 c 0
 64 537 51 554 51 573 c 0
 51 591 64 608 83 613 c 0
 87 614 105 614 175 614 c 2
 262 614 l 1
 262 698 l 2
 262 771 262 783 264 787 c 0
 268 802 279 813 293 817 c 0
EndSplineSet
EndChar

StartChar: u
Encoding: 117 117 83
Width: 859
VWidth: 909
Flags: HW
LayerCount: 2
Fore
SplineSet
133 612 m 0
 153 618 176 608 183 586 c 0
 184 583 184 531 184 414 c 0
 185 233 186 236 190 204 c 0
 195 167 208 139 228 121 c 0
 255 95 292 83 353 79 c 0
 375 77 495 77 520 79 c 0
 542 80 568 83 581 86 c 0
 612 91 637 101 649 111 c 0
 661 123 670 142 674 168 c 0
 675 174 675 220 676 380 c 2
 676 583 l 1
 678 587 l 2
 683 600 694 609 708 612 c 0
 730 618 754 605 758 582 c 0
 759 576 759 39 758 33 c 0
 754 15 736 0 717 0 c 0
 702 0 686 10 680 24 c 0
 678 28 676 30 676 30 c 2
 675 29 671 28 665 25 c 0
 630 10 586 0 525 -4 c 0
 500 -6 368 -6 348 -4 c 0
 270 1 220 18 179 53 c 0
 140 86 118 132 108 197 c 0
 104 229 103 226 102 407 c 0
 102 530 101 578 102 582 c 0
 105 596 119 608 133 612 c 0
EndSplineSet
EndChar

StartChar: v
Encoding: 118 118 84
Width: 808
VWidth: 909
Flags: HW
LayerCount: 2
Fore
SplineSet
108 613 m 0
 117 615 128 614 137 609 c 0
 143 606 150 599 154 594 c 0
 155 591 211 475 279 336 c 2
 401 84 l 1
 406 84 l 1
 408 84 l 1
 530 336 l 2
 598 475 654 591 655 594 c 0
 659 599 666 606 672 609 c 0
 700 624 733 604 733 573 c 0
 733 569 733 565 732 563 c 0
 730 558 471 23 467 17 c 0
 463 12 454 6 447 3 c 0
 443 1 443 1 406 1 c 0
 368 1 365 1 361 3 c 0
 354 6 346 12 342 17 c 0
 338 23 80 558 78 563 c 0
 76 568 76 580 78 586 c 0
 82 599 95 609 108 613 c 0
EndSplineSet
EndChar

StartChar: w
Encoding: 119 119 85
Width: 1263
VWidth: 909
Flags: HW
LayerCount: 2
Fore
SplineSet
108 613 m 0
 117 615 128 614 137 609 c 0
 143 606 150 599 154 594 c 0
 155 591 205 475 265 336 c 0
 376 78 375 79 377 84 c 0
 383 100 595 591 597 595 c 0
 606 609 626 617 643 613 c 0
 653 609 664 602 668 594 c 0
 670 591 885 91 888 84 c 0
 890 79 888 78 999 336 c 0
 1059 475 1109 591 1110 594 c 0
 1114 599 1120 606 1126 609 c 0
 1154 624 1188 604 1188 573 c 0
 1188 569 1187 565 1187 563 c 0
 1186 559 958 26 954 20 c 0
 951 15 944 8 938 4 c 0
 929 0 926 0 889 0 c 0
 852 0 850 0 840 5 c 0
 833 9 827 16 823 25 c 0
 821 29 777 130 725 250 c 0
 674 370 633 468 632 468 c 2
 632 468 590 369 538 248 c 0
 486 128 442 26 440 23 c 0
 435 12 425 5 414 1 c 0
 407 -1 343 -1 337 1 c 0
 326 5 314 11 310 20 c 0
 306 26 79 559 78 563 c 0
 76 568 76 580 78 586 c 0
 82 599 95 609 108 613 c 0
EndSplineSet
EndChar

StartChar: x
Encoding: 120 120 86
Width: 808
VWidth: 909
Flags: HW
LayerCount: 2
Fore
SplineSet
122 612 m 0
 128 614 137 614 143 613 c 0
 154 609 153 612 282 488 c 0
 350 425 404 373 404 373 c 1
 404 373 460 423 528 488 c 0
 658 612 656 609 667 613 c 0
 677 615 687 614 696 609 c 0
 710 602 720 582 717 567 c 0
 716 560 713 551 709 546 c 0
 707 544 653 494 592 435 c 0
 531 376 475 325 471 322 c 2
 465 314 l 1
 594 191 l 2
 679 110 724 66 726 63 c 0
 730 57 733 49 733 42 c 0
 733 7 695 -11 667 9 c 0
 664 11 604 67 534 135 c 2
 406 258 l 1
 275 135 l 2
 204 66 145 10 142 8 c 0
 136 4 128 1 120 0 c 0
 106 -1 91 7 83 19 c 0
 75 32 75 51 83 63 c 0
 85 66 130 110 215 191 c 2
 344 314 l 1
 338 322 l 2
 334 325 278 376 217 435 c 0
 156 494 103 544 101 546 c 0
 94 555 90 569 92 580 c 0
 95 595 107 608 122 612 c 0
EndSplineSet
EndChar

StartChar: y
Encoding: 121 121 87
Width: 809
VWidth: 910
Flags: HW
LayerCount: 2
Fore
SplineSet
107 613 m 0
 116 615 128 614 137 609 c 0
 149 604 141 618 279 363 c 0
 396 144 405 128 406 131 c 0
 438 192 658 597 660 600 c 0
 664 605 671 610 677 612 c 0
 699 620 724 608 731 585 c 0
 733 578 734 568 731 562 c 0
 730 557 332 -183 327 -188 c 0
 320 -198 307 -205 294 -205 c 0
 279 -205 263 -195 257 -180 c 0
 254 -175 254 -173 253 -165 c 0
 253 -159 253 -155 255 -151 c 0
 256 -148 279 -104 307 -53 c 0
 334 -2 357 41 357 42 c 2
 357 42 294 158 218 299 c 0
 142 440 78 559 78 562 c 0
 77 565 76 569 76 573 c 0
 76 591 89 608 107 613 c 0
EndSplineSet
EndChar

StartChar: z
Encoding: 122 122 88
Width: 808
VWidth: 909
Flags: HW
LayerCount: 2
Fore
SplineSet
108 613 m 0
 112 614 172 614 404 614 c 0
 720 614 701 614 711 610 c 0
 731 599 738 570 726 550 c 0
 723 547 638 467 473 314 c 2
 224 84 l 1
 463 83 l 2
 634 83 700 82 703 81 c 0
 708 79 716 76 720 72 c 0
 740 53 736 16 711 4 c 0
 701 0 721 0 406 0 c 0
 90 0 108 0 98 4 c 0
 78 15 71 45 83 65 c 0
 86 68 171 147 336 300 c 2
 586 531 l 1
 347 531 l 2
 176 531 108 533 105 534 c 0
 87 540 77 554 77 573 c 0
 77 591 90 608 108 613 c 0
EndSplineSet
EndChar

StartChar: braceleft
Encoding: 123 123 89
Width: 454
VWidth: 909
Flags: HW
LayerCount: 2
Fore
SplineSet
319 872 m 0
 333 874 359 872 372 868 c 0
 396 863 408 841 402 818 c 0
 399 806 392 796 380 791 c 0
 375 788 374 788 365 788 c 0
 359 788 351 789 347 790 c 0
 328 794 308 786 294 773 c 0
 287 765 282 754 278 742 c 0
 269 715 266 685 266 615 c 0
 266 548 263 518 255 485 c 0
 248 456 236 435 218 413 c 2
 217 410 l 1
 218 407 l 2
 236 385 248 363 255 334 c 0
 263 301 266 271 266 204 c 0
 266 134 269 104 278 77 c 0
 282 65 287 54 294 46 c 0
 308 33 328 26 347 30 c 0
 351 31 359 32 365 32 c 0
 374 32 375 32 380 29 c 0
 387 25 395 17 398 11 c 0
 409 -9 402 -34 382 -45 c 0
 368 -53 334 -55 309 -51 c 0
 289 -47 269 -39 253 -28 c 0
 243 -21 227 -5 220 5 c 0
 208 24 196 50 191 78 c 0
 185 109 184 123 183 197 c 0
 183 231 182 263 181 269 c 0
 178 303 173 325 165 341 c 0
 161 348 149 361 141 365 c 0
 136 368 135 367 129 366 c 0
 109 363 81 367 69 373 c 0
 63 376 54 384 51 389 c 0
 44 401 44 418 51 430 c 0
 54 435 63 443 69 446 c 0
 81 452 109 457 129 454 c 0
 135 453 136 452 141 455 c 0
 149 459 161 471 165 479 c 0
 173 494 178 516 181 550 c 0
 182 556 183 589 183 623 c 0
 184 697 185 709 191 741 c 0
 196 768 208 795 220 814 c 0
 227 824 243 840 253 847 c 0
 272 859 296 869 319 872 c 0
EndSplineSet
EndChar

StartChar: bar
Encoding: 124 124 90
Width: 505
VWidth: 909
Flags: HW
LayerCount: 2
Fore
SplineSet
243 817 m 0
 266 823 290 809 294 786 c 0
 295 780 295 39 294 33 c 0
 290 15 273 0 254 0 c 0
 235 0 218 13 214 32 c 0
 212 36 212 78 212 410 c 0
 212 742 212 783 214 787 c 0
 218 802 229 813 243 817 c 0
EndSplineSet
EndChar

StartChar: braceright
Encoding: 125 125 91
Width: 454
VWidth: 909
Flags: HW
LayerCount: 2
Fore
SplineSet
92 872 m 0
 101 873 126 873 136 871 c 0
 181 862 221 834 241 792 c 0
 253 767 260 736 264 695 c 0
 265 689 266 657 266 623 c 0
 267 562 267 548 270 526 c 0
 275 489 287 467 307 456 c 0
 311 453 313 453 316 454 c 0
 324 456 346 456 355 455 c 0
 367 453 382 450 387 446 c 0
 393 443 401 435 404 430 c 0
 411 418 411 401 404 389 c 0
 401 384 393 376 387 373 c 0
 382 369 367 367 355 365 c 0
 346 364 324 364 316 366 c 0
 313 367 311 367 307 364 c 0
 287 353 275 330 270 293 c 0
 267 271 267 258 266 197 c 0
 266 163 265 130 264 125 c 0
 260 83 253 53 241 28 c 0
 216 -20 169 -51 116 -54 c 0
 96 -55 73 -51 61 -45 c 0
 41 -34 34 -9 45 11 c 0
 48 17 58 25 65 29 c 0
 70 32 71 31 81 31 c 0
 87 31 93 31 98 30 c 0
 115 26 139 33 152 45 c 0
 169 60 177 85 181 131 c 0
 182 137 183 170 183 204 c 0
 183 238 183 270 184 276 c 0
 189 334 202 372 227 403 c 2
 233 410 l 1
 227 416 l 2
 202 447 189 485 184 544 c 0
 183 549 183 581 183 615 c 0
 183 649 182 682 181 688 c 0
 177 734 169 759 152 774 c 0
 139 786 115 794 98 790 c 0
 93 789 87 788 81 788 c 0
 71 788 70 788 65 791 c 0
 58 795 48 802 45 808 c 0
 33 828 42 854 62 864 c 0
 68 868 81 870 92 872 c 0
EndSplineSet
EndChar

StartChar: asciitilde
Encoding: 126 126 92
Width: 1010
VWidth: 909
Flags: HW
LayerCount: 2
Fore
SplineSet
237 471 m 0
 259 472 337 472 359 471 c 0
 411 468 447 460 476 446 c 0
 489 439 499 434 508 424 c 0
 527 405 540 378 545 342 c 0
 545 338 546 323 547 311 c 0
 548 285 549 277 553 266 c 0
 558 249 566 243 586 236 c 0
 612 228 644 225 713 225 c 0
 781 225 813 228 839 236 c 0
 859 243 867 249 872 266 c 0
 875 275 877 284 878 303 c 0
 879 317 880 323 885 331 c 0
 894 344 914 352 930 348 c 0
 944 344 955 330 959 315 c 0
 961 305 959 281 955 261 c 0
 948 224 931 194 906 177 c 0
 897 171 881 164 869 160 c 0
 832 148 795 142 713 142 c 0
 630 142 592 148 555 160 c 0
 543 164 527 171 518 177 c 0
 499 190 483 212 475 238 c 0
 468 258 465 273 464 303 c 0
 463 329 463 336 459 348 c 0
 454 364 445 372 425 379 c 0
 399 387 367 389 299 389 c 0
 230 389 199 387 173 379 c 0
 153 372 144 364 139 348 c 0
 136 338 135 329 134 315 c 0
 134 309 133 302 133 299 c 0
 129 281 112 266 93 266 c 0
 74 266 57 279 53 298 c 0
 49 312 53 350 61 375 c 0
 70 402 84 424 104 437 c 0
 133 457 177 468 237 471 c 0
EndSplineSet
EndChar

StartChar: Adieresis
Encoding: 196 196 93
Width: 1061
VWidth: 909
Flags: HW
LayerCount: 2
Fore
SplineSet
463 952 m 0
 485 957 507 945 512 922 c 0
 519 896 500 870 472 870 c 0
 445 870 426 896 432 922 c 0
 436 937 448 948 463 952 c 0
580 952 m 0
 602 957 624 945 629 922 c 0
 636 896 617 870 590 870 c 0
 562 870 543 896 549 922 c 0
 553 937 565 948 580 952 c 0
492 817 m 0
 496 819 504 819 534 819 c 0
 570 818 570 818 574 816 c 0
 581 813 590 807 594 802 c 0
 599 794 983 58 984 53 c 0
 985 50 986 45 986 41 c 0
 986 4 941 -15 915 12 c 0
 911 16 903 32 829 172 c 2
 750 328 l 1
 531 328 l 1
 314 328 l 1
 233 172 l 2
 159 32 150 16 146 12 c 0
 120 -15 77 4 77 41 c 0
 77 45 77 50 78 53 c 0
 79 56 418 708 465 797 c 0
 470 808 481 814 492 817 c 0
620 573 m 1
 536 736 l 1
 531 736 l 1
 527 736 l 1
 508 699 l 2
 497 679 459 607 422 537 c 2
 356 412 l 1
 444 411 l 1
 618 411 l 1
 706 412 l 1
 620 573 l 1
EndSplineSet
EndChar

StartChar: Odieresis
Encoding: 214 214 94
Width: 1163
VWidth: 909
Flags: HW
LayerCount: 2
Fore
SplineSet
514 952 m 0
 536 957 558 945 563 922 c 0
 570 896 551 870 523 870 c 0
 496 870 477 896 483 922 c 0
 487 937 499 948 514 952 c 0
630 952 m 0
 652 957 674 945 679 922 c 0
 686 896 667 870 640 870 c 0
 612 870 593 896 599 922 c 0
 603 937 615 948 630 952 c 0
485 823 m 0
 544 825 676 825 719 822 c 0
 811 817 881 801 936 772 c 0
 1021 727 1067 657 1084 544 c 0
 1090 505 1092 480 1092 410 c 0
 1092 340 1090 314 1084 275 c 0
 1067 162 1021 92 936 47 c 0
 881 18 811 2 719 -3 c 0
 658 -7 505 -7 445 -3 c 0
 352 2 282 18 228 47 c 0
 142 92 96 162 79 275 c 0
 73 314 72 340 72 410 c 0
 72 480 73 505 79 544 c 0
 96 657 142 727 228 772 c 0
 290 804 370 819 485 823 c 0
671 741 m 0
 638 742 522 742 489 741 c 0
 378 737 309 722 257 692 c 0
 216 668 190 637 174 588 c 0
 161 547 154 492 154 410 c 0
 154 328 161 272 174 231 c 0
 185 199 198 176 218 156 c 0
 254 120 310 97 388 86 c 0
 434 79 484 78 582 78 c 0
 661 78 702 79 744 83 c 0
 812 88 867 104 906 127 c 0
 947 151 973 182 989 231 c 0
 1002 272 1010 328 1010 410 c 0
 1010 492 1002 547 989 588 c 0
 978 620 965 644 945 664 c 0
 909 700 853 722 775 733 c 0
 746 737 716 739 671 741 c 0
EndSplineSet
EndChar

StartChar: Udieresis
Encoding: 220 220 95
Width: 1010
VWidth: 909
Flags: HW
LayerCount: 2
Fore
SplineSet
438 952 m 0
 460 957 482 945 487 922 c 0
 494 896 474 870 446 870 c 0
 419 870 401 896 407 922 c 0
 411 937 423 948 438 952 c 0
554 952 m 0
 576 957 598 945 603 922 c 0
 610 896 591 870 563 870 c 0
 536 870 517 896 523 922 c 0
 527 937 539 948 554 952 c 0
133 817 m 0
 156 823 180 809 184 786 c 0
 185 782 184 720 184 555 c 0
 184 298 185 284 191 244 c 0
 203 166 237 120 304 97 c 0
 334 87 364 83 414 79 c 0
 438 77 574 77 598 79 c 0
 648 83 679 87 709 97 c 0
 776 120 809 166 821 244 c 0
 827 284 827 298 827 555 c 0
 827 756 827 783 829 787 c 0
 836 819 875 829 898 807 c 0
 902 802 907 793 909 786 c 0
 910 780 910 330 909 299 c 0
 907 264 905 244 900 217 c 0
 888 147 857 95 810 58 c 0
 763 22 703 3 618 -3 c 0
 569 -7 443 -7 394 -3 c 0
 309 3 249 22 203 58 c 0
 146 102 113 168 105 263 c 0
 101 295 102 322 102 552 c 0
 102 757 101 783 103 787 c 0
 107 802 119 813 133 817 c 0
EndSplineSet
EndChar

StartChar: adieresis
Encoding: 228 228 96
Width: 859
VWidth: 909
Flags: HW
LayerCount: 2
Fore
SplineSet
362 748 m 0
 384 753 407 740 412 717 c 0
 419 691 400 666 372 666 c 0
 345 666 326 691 332 717 c 0
 336 732 347 744 362 748 c 0
478 748 m 0
 500 753 522 740 527 717 c 0
 534 691 515 666 487 666 c 0
 460 666 440 691 446 717 c 0
 450 732 463 744 478 748 c 0
331 618 m 0
 368 619 485 619 505 618 c 0
 581 615 629 606 669 587 c 0
 686 579 697 571 709 559 c 0
 738 531 754 491 758 441 c 0
 759 426 759 39 758 33 c 0
 754 18 741 5 727 1 c 0
 715 -2 700 2 689 10 c 0
 685 14 679 24 678 28 c 2
 676 31 l 1
 676 31 671 30 666 27 c 0
 627 8 578 -1 505 -4 c 0
 475 -5 385 -5 356 -4 c 0
 295 -1 249 6 214 18 c 0
 202 22 182 32 173 37 c 0
 127 69 102 127 102 205 c 0
 102 248 110 283 123 313 c 0
 139 346 160 367 193 382 c 0
 233 402 280 411 356 414 c 0
 385 415 475 415 505 414 c 0
 578 411 627 402 666 383 c 2
 676 379 l 1
 676 408 l 2
 675 438 674 446 671 461 c 0
 665 488 653 502 634 512 c 0
 605 526 566 534 497 537 c 0
 465 538 327 538 295 536 c 0
 241 533 204 527 189 522 c 0
 185 520 184 521 184 517 c 0
 182 512 176 501 172 497 c 0
 169 495 164 491 160 489 c 0
 154 486 152 487 143 487 c 0
 133 487 133 486 127 489 c 0
 118 493 112 500 108 508 c 0
 100 522 101 541 111 560 c 0
 123 584 147 599 186 607 c 0
 215 613 272 617 331 618 c 0
501 332 m 0
 474 333 384 333 356 332 c 0
 295 329 253 321 225 307 c 0
 216 303 205 292 201 284 c 0
 190 265 185 242 185 205 c 0
 185 168 190 145 201 126 c 0
 205 118 216 106 225 102 c 0
 254 88 293 81 360 78 c 0
 389 77 471 77 501 78 c 0
 567 81 606 88 635 102 c 0
 644 106 655 118 659 126 c 0
 670 145 675 168 675 205 c 0
 675 242 670 265 659 284 c 0
 655 292 644 303 635 307 c 0
 606 321 567 329 501 332 c 0
EndSplineSet
EndChar

StartChar: odieresis
Encoding: 246 246 97
Width: 960
VWidth: 909
Flags: HW
LayerCount: 2
Fore
SplineSet
414 748 m 0
 436 753 458 740 463 717 c 0
 470 691 450 666 422 666 c 0
 395 666 376 691 382 717 c 0
 386 732 399 744 414 748 c 0
528 748 m 0
 550 753 573 740 578 717 c 0
 585 691 566 666 539 666 c 0
 511 666 492 691 498 717 c 0
 502 732 513 744 528 748 c 0
407 618 m 0
 426 619 573 619 586 618 c 0
 684 612 743 596 792 562 c 0
 853 521 884 454 889 351 c 0
 890 328 890 286 889 264 c 0
 882 129 832 56 726 20 c 0
 688 8 646 0 584 -4 c 0
 558 -6 404 -6 378 -4 c 0
 279 2 219 18 169 52 c 0
 108 93 77 160 72 264 c 0
 71 286 71 328 72 351 c 0
 79 485 128 558 234 594 c 0
 279 609 329 615 407 618 c 0
558 537 m 0
 529 538 429 538 400 537 c 0
 328 534 281 525 244 509 c 0
 184 483 160 439 155 344 c 0
 154 322 154 291 155 271 c 0
 159 201 171 162 199 134 c 0
 230 104 284 85 366 80 c 0
 419 76 542 76 596 80 c 0
 646 84 686 92 718 105 c 0
 765 125 790 158 800 217 c 0
 809 266 809 348 800 398 c 0
 794 435 782 460 763 480 c 0
 732 510 677 530 596 535 c 0
 588 536 570 536 558 537 c 0
EndSplineSet
EndChar

StartChar: udieresis
Encoding: 252 252 98
Width: 859
VWidth: 909
Flags: HW
LayerCount: 2
Fore
SplineSet
362 748 m 0
 384 753 407 740 412 717 c 0
 419 691 400 666 372 666 c 0
 345 666 326 691 332 717 c 0
 336 732 347 744 362 748 c 0
478 748 m 0
 500 753 522 740 527 717 c 0
 534 691 515 666 487 666 c 0
 460 666 440 691 446 717 c 0
 450 732 463 744 478 748 c 0
133 612 m 0
 153 618 176 608 183 586 c 0
 184 583 184 531 184 414 c 0
 185 233 186 236 190 204 c 0
 195 167 208 139 228 121 c 0
 255 95 292 83 353 79 c 0
 375 77 495 77 520 79 c 0
 542 80 568 83 581 86 c 0
 612 91 637 101 649 111 c 0
 661 123 670 142 674 168 c 0
 675 174 675 220 676 380 c 2
 676 583 l 1
 678 587 l 2
 683 600 694 609 708 612 c 0
 730 618 754 605 758 582 c 0
 759 576 759 39 758 33 c 0
 754 15 736 0 717 0 c 0
 702 0 686 10 680 24 c 0
 678 28 676 30 676 30 c 2
 675 29 671 28 665 25 c 0
 630 10 586 0 525 -4 c 0
 500 -6 368 -6 348 -4 c 0
 270 1 220 18 179 53 c 0
 140 86 118 132 108 197 c 0
 104 229 103 226 102 407 c 0
 102 530 101 578 102 582 c 0
 105 596 119 608 133 612 c 0
EndSplineSet
EndChar

StartChar: degree
Encoding: 176 176 99
Width: 707
VWidth: 909
Flags: HW
LayerCount: 2
Fore
SplineSet
275 818 m 0
 303 819 402 819 429 818 c 0
 484 816 522 810 556 799 c 0
 571 795 590 785 600 778 c 0
 637 751 657 704 657 651 c 0
 657 596 637 548 600 521 c 0
 580 506 543 492 500 487 c 0
 463 482 428 480 354 480 c 0
 280 480 246 482 209 487 c 0
 166 492 129 506 109 521 c 0
 72 548 51 596 51 651 c 0
 51 704 72 751 109 778 c 0
 141 802 197 814 275 818 c 0
424 735 m 0
 397 736 310 736 282 735 c 0
 225 732 180 726 160 714 c 0
 142 702 131 673 135 639 c 0
 136 626 139 616 143 606 c 0
 149 593 158 586 176 580 c 0
 211 568 256 563 354 563 c 0
 452 563 497 568 532 580 c 0
 550 586 559 593 565 606 c 0
 569 616 572 626 573 639 c 0
 576 667 569 693 557 706 c 0
 552 712 544 716 532 720 c 0
 507 729 475 733 424 735 c 0
EndSplineSet
EndChar

StartChar: grave
Encoding: 96 96 100
Width: 252
VWidth: 909
Flags: HW
LayerCount: 2
Fore
SplineSet
127 819 m 0
 132 820 157 819 163 818 c 0
 205 809 236 782 251 740 c 0
 263 706 269 663 269 595 c 0
 269 568 268 565 264 556 c 0
 260 548 254 542 245 538 c 0
 239 535 237 536 228 536 c 0
 218 536 217 535 211 538 c 0
 202 542 197 548 193 556 c 0
 189 564 186 569 186 592 c 0
 186 633 183 673 179 693 c 0
 173 719 166 731 151 735 c 0
 146 737 143 737 134 736 c 0
 122 736 117 737 108 741 c 0
 100 745 93 753 89 761 c 0
 86 766 86 767 86 778 c 0
 86 788 86 790 89 795 c 0
 95 809 109 817 127 819 c 0
EndSplineSet
EndChar

StartChar: quotesingle
Encoding: 39 39 101
Width: 201
VWidth: 909
Flags: HW
LayerCount: 2
Fore
SplineSet
91 817 m 0
 114 823 138 809 142 786 c 0
 143 780 143 573 142 567 c 0
 140 560 135 550 130 545 c 0
 127 543 123 540 119 538 c 0
 113 535 111 536 102 536 c 0
 92 536 91 535 85 538 c 0
 81 540 76 543 73 545 c 0
 68 550 63 560 61 567 c 0
 60 571 60 603 60 677 c 0
 60 769 59 783 61 787 c 0
 65 802 77 813 91 817 c 0
EndSplineSet
EndChar
